<?xml version="1.0" encoding="us-ascii" standalone="no"?><svg xmlns="http://www.w3.org/2000/svg" xmlns:xlink="http://www.w3.org/1999/xlink" contentStyleType="text/css" height="429px" preserveAspectRatio="none" style="width:1586px;height:429px;background:#FFFFFF;" version="1.1" viewBox="0 0 1586 429" width="1586px" zoomAndPan="magnify"><defs/><g><text fill="#000000" font-family="sans-serif" font-size="14" font-weight="bold" lengthAdjust="spacing" textLength="258" x="662.5" y="34.5332">Sql Connection string validation flow</text><ellipse cx="788" cy="58.6094" fill="#222222" rx="10" ry="10" style="stroke:#222222;stroke-width:1.0;"/><polygon fill="#F1F1F1" points="219,88.6094,266,88.6094,278,100.6094,266,112.6094,219,112.6094,207,100.6094,219,88.6094" style="stroke:#181818;stroke-width:0.5;"/><text fill="#000000" font-family="sans-serif" font-size="11" lengthAdjust="spacing" textLength="18" x="246.5" y="124.0283">yes</text><text fill="#000000" font-family="sans-serif" font-size="11" lengthAdjust="spacing" textLength="47" x="219" y="105.1104">credential</text><polygon fill="#F1F1F1" points="136,146.4453,349,146.4453,361,208.707,349,270.9688,136,270.9688,124,208.707,136,146.4453" style="stroke:#181818;stroke-width:0.5;"/><text fill="#000000" font-family="sans-serif" font-size="11" lengthAdjust="spacing" textLength="210" x="136" y="157.8643">Authentication == ActiveDirectoryIntegrated</text><text fill="#000000" font-family="sans-serif" font-size="11" lengthAdjust="spacing" textLength="130" x="136" y="171.7002">| ActiveDirectoryInteractive</text><text fill="#000000" font-family="sans-serif" font-size="11" lengthAdjust="spacing" textLength="162" x="136" y="185.5361">| ActiveDirectoryDeviceCodeFlow</text><text fill="#000000" font-family="sans-serif" font-size="11" lengthAdjust="spacing" textLength="158" x="136" y="199.3721">| ActiveDirectoryManagedIdentity</text><text fill="#000000" font-family="sans-serif" font-size="11" lengthAdjust="spacing" textLength="97" x="136" y="213.208">| ActiveDirectoryMSI</text><text fill="#000000" font-family="sans-serif" font-size="11" lengthAdjust="spacing" textLength="114" x="136" y="227.0439">| ActiveDirectoryDefault</text><text fill="#000000" font-family="sans-serif" font-size="11" lengthAdjust="spacing" textLength="159" x="136" y="240.8799">| ActiveDirectoryWorkloadIdentity</text><text fill="#000000" font-family="sans-serif" font-size="11" lengthAdjust="spacing" textLength="134" x="136" y="254.7158">|| Clear UserId Or Password</text><text fill="#000000" font-family="sans-serif" font-size="11" lengthAdjust="spacing" textLength="98" x="136" y="268.5518">|| Integrated Security</text><text fill="#000000" font-family="sans-serif" font-size="11" lengthAdjust="spacing" textLength="18" x="106" y="206.29">yes</text><text fill="#000000" font-family="sans-serif" font-size="11" lengthAdjust="spacing" textLength="12" x="361" y="206.29">no</text><rect fill="#FFFF00" height="35.0938" rx="12.5" ry="12.5" style="stroke:#181818;stroke-width:0.5;" width="206" x="11" y="280.9688"/><text fill="#000000" font-family="sans-serif" font-size="12" lengthAdjust="spacing" textLength="186" x="21" y="303.4258">ERROR Combination Not Allowed</text><ellipse cx="114" cy="346.0625" fill="none" rx="10" ry="10" style="stroke:#222222;stroke-width:1.5;"/><line style="stroke:#222222;stroke-width:2.5;" x1="107.8128" x2="120.1872" y1="339.8753" y2="352.2497"/><line style="stroke:#222222;stroke-width:2.5;" x1="120.1872" x2="107.8128" y1="339.8753" y2="352.2497"/><rect fill="#ADFF2F" height="35.0938" rx="12.5" ry="12.5" style="stroke:#181818;stroke-width:0.5;" width="108" x="317" y="280.9688"/><text fill="#000000" font-family="sans-serif" font-size="12" lengthAdjust="spacing" textLength="88" x="327" y="303.4258">proceed to login</text><polygon fill="#F1F1F1" points="592.5,88.6094,657.5,88.6094,669.5,100.6094,657.5,112.6094,592.5,112.6094,580.5,100.6094,592.5,88.6094" style="stroke:#181818;stroke-width:0.5;"/><text fill="#000000" font-family="sans-serif" font-size="11" lengthAdjust="spacing" textLength="18" x="629" y="124.0283">yes</text><text fill="#000000" font-family="sans-serif" font-size="11" lengthAdjust="spacing" textLength="65" x="592.5" y="105.1104">access token</text><polygon fill="#F1F1F1" points="560,146.4453,690,146.4453,702,181.0352,690,215.625,560,215.625,548,181.0352,560,146.4453" style="stroke:#181818;stroke-width:0.5;"/><text fill="#000000" font-family="sans-serif" font-size="11" lengthAdjust="spacing" textLength="127" x="560" y="157.8643">Clear UserId Or Password</text><text fill="#000000" font-family="sans-serif" font-size="11" lengthAdjust="spacing" textLength="98" x="560" y="171.7002">|| Integrated Security</text><text fill="#000000" font-family="sans-serif" font-size="11" lengthAdjust="spacing" textLength="76" x="560" y="185.5361">|| Authentication</text><text fill="#000000" font-family="sans-serif" font-size="11" lengthAdjust="spacing" textLength="54" x="560" y="199.3721">|| credential</text><text fill="#000000" font-family="sans-serif" font-size="11" lengthAdjust="spacing" textLength="108" x="560" y="213.208">|| accesstokencallback</text><text fill="#000000" font-family="sans-serif" font-size="11" lengthAdjust="spacing" textLength="18" x="530" y="178.6182">yes</text><text fill="#000000" font-family="sans-serif" font-size="11" lengthAdjust="spacing" textLength="12" x="702" y="178.6182">no</text><rect fill="#FFFF00" height="35.0938" rx="12.5" ry="12.5" style="stroke:#181818;stroke-width:0.5;" width="204" x="435" y="225.625"/><text fill="#000000" font-family="sans-serif" font-size="12" lengthAdjust="spacing" textLength="184" x="445" y="248.082">ERROR Combination not allowed</text><ellipse cx="537" cy="305.7188" fill="none" rx="10" ry="10" style="stroke:#222222;stroke-width:1.5;"/><line style="stroke:#222222;stroke-width:2.5;" x1="530.8128" x2="543.1872" y1="299.5316" y2="311.9059"/><line style="stroke:#222222;stroke-width:2.5;" x1="543.1872" x2="530.8128" y1="299.5316" y2="311.9059"/><rect fill="#ADFF2F" height="35.0938" rx="12.5" ry="12.5" style="stroke:#181818;stroke-width:0.5;" width="108" x="659" y="225.625"/><text fill="#000000" font-family="sans-serif" font-size="12" lengthAdjust="spacing" textLength="88" x="669" y="248.082">proceed to login</text><polygon fill="#F1F1F1" points="923.5,88.6094,1030.5,88.6094,1042.5,100.6094,1030.5,112.6094,923.5,112.6094,911.5,100.6094,923.5,88.6094" style="stroke:#181818;stroke-width:0.5;"/><text fill="#000000" font-family="sans-serif" font-size="11" lengthAdjust="spacing" textLength="18" x="981" y="124.0283">yes</text><text fill="#000000" font-family="sans-serif" font-size="11" lengthAdjust="spacing" textLength="107" x="923.5" y="105.1104">access token callback</text><polygon fill="#F1F1F1" points="930,146.4453,1024,146.4453,1036,167.1992,1024,187.9531,930,187.9531,918,167.1992,930,146.4453" style="stroke:#181818;stroke-width:0.5;"/><text fill="#000000" font-family="sans-serif" font-size="11" lengthAdjust="spacing" textLength="91" x="930" y="157.8643">Integrated Security</text><text fill="#000000" font-family="sans-serif" font-size="11" lengthAdjust="spacing" textLength="76" x="930" y="171.7002">|| Authentication</text><text fill="#000000" font-family="sans-serif" font-size="11" lengthAdjust="spacing" textLength="69" x="930" y="185.5361">|| accesstoken</text><text fill="#000000" font-family="sans-serif" font-size="11" lengthAdjust="spacing" textLength="18" x="900" y="164.7822">yes</text><text fill="#000000" font-family="sans-serif" font-size="11" lengthAdjust="spacing" textLength="12" x="1036" y="164.7822">no</text><rect fill="#FFFF00" height="35.0938" rx="12.5" ry="12.5" style="stroke:#181818;stroke-width:0.5;" width="204" x="787" y="197.9531"/><text fill="#000000" font-family="sans-serif" font-size="12" lengthAdjust="spacing" textLength="184" x="797" y="220.4102">ERROR Combination not allowed</text><ellipse cx="889" cy="278.0469" fill="none" rx="10" ry="10" style="stroke:#222222;stroke-width:1.5;"/><line style="stroke:#222222;stroke-width:2.5;" x1="882.8128" x2="895.1872" y1="271.8597" y2="284.2341"/><line style="stroke:#222222;stroke-width:2.5;" x1="895.1872" x2="882.8128" y1="271.8597" y2="284.2341"/><rect fill="#ADFF2F" height="35.0938" rx="12.5" ry="12.5" style="stroke:#181818;stroke-width:0.5;" width="108" x="1011" y="197.9531"/><text fill="#000000" font-family="sans-serif" font-size="12" lengthAdjust="spacing" textLength="88" x="1021" y="220.4102">proceed to login</text><polygon fill="#F1F1F1" points="1191.5,79.8555,1348.5,79.8555,1360.5,100.6094,1348.5,121.3633,1191.5,121.3633,1179.5,100.6094,1191.5,79.8555" style="stroke:#181818;stroke-width:0.5;"/><text fill="#000000" font-family="sans-serif" font-size="11" lengthAdjust="spacing" textLength="18" x="1274" y="132.7822">yes</text><text fill="#000000" font-family="sans-serif" font-size="11" lengthAdjust="spacing" textLength="152" x="1191.5" y="91.2744">Authentication == SqlPassword</text><text fill="#000000" font-family="sans-serif" font-size="11" lengthAdjust="spacing" textLength="130" x="1191.5" y="105.1104">| ActiveDirectoryPassword</text><text fill="#000000" font-family="sans-serif" font-size="11" lengthAdjust="spacing" textLength="157" x="1191.5" y="118.9463">| ActiveDirectoryServicePrincipal</text><text fill="#000000" font-family="sans-serif" font-size="11" lengthAdjust="spacing" textLength="12" x="1360.5" y="98.1924">no</text><polygon fill="#F1F1F1" points="1216,155.1992,1324,155.1992,1336,175.9531,1324,196.707,1216,196.707,1204,175.9531,1216,155.1992" style="stroke:#181818;stroke-width:0.5;"/><text fill="#000000" font-family="sans-serif" font-size="11" lengthAdjust="spacing" textLength="90" x="1216" y="166.6182">"userid | uid | user"</text><text fill="#000000" font-family="sans-serif" font-size="11" lengthAdjust="spacing" textLength="105" x="1216" y="180.4541">&amp;&amp; "password | pwd"</text><text fill="#000000" font-family="sans-serif" font-size="11" lengthAdjust="spacing" textLength="54" x="1216" y="194.29">|| credential</text><text fill="#000000" font-family="sans-serif" font-size="11" lengthAdjust="spacing" textLength="18" x="1186" y="173.5361">yes</text><text fill="#000000" font-family="sans-serif" font-size="11" lengthAdjust="spacing" textLength="12" x="1336" y="173.5361">no</text><rect fill="#ADFF2F" height="35.0938" rx="12.5" ry="12.5" style="stroke:#181818;stroke-width:0.5;" width="108" x="1129" y="206.707"/><text fill="#000000" font-family="sans-serif" font-size="12" lengthAdjust="spacing" textLength="88" x="1139" y="229.1641">proceed to login</text><rect fill="#FFFF00" height="50.1875" rx="12.5" ry="12.5" style="stroke:#181818;stroke-width:0.5;" width="200" x="1257" y="206.707"/><text fill="#000000" font-family="sans-serif" font-size="12" lengthAdjust="spacing" textLength="177" x="1267" y="229.1641">ERROR User Name - Password</text><text fill="#000000" font-family="sans-serif" font-size="12" lengthAdjust="spacing" textLength="127" x="1267" y="244.2578">Or Credential not found</text><ellipse cx="1357" cy="301.8945" fill="none" rx="10" ry="10" style="stroke:#222222;stroke-width:1.5;"/><line style="stroke:#222222;stroke-width:2.5;" x1="1350.8128" x2="1363.1872" y1="295.7073" y2="308.0817"/><line style="stroke:#222222;stroke-width:2.5;" x1="1363.1872" x2="1350.8128" y1="295.7073" y2="308.0817"/><rect fill="#ADFF2F" height="35.0938" rx="12.5" ry="12.5" style="stroke:#181818;stroke-width:0.5;" width="108" x="1467" y="235.9121"/><text fill="#000000" font-family="sans-serif" font-size="12" lengthAdjust="spacing" textLength="88" x="1477" y="258.3691">proceed to login</text><ellipse cx="788" cy="407.0625" fill="none" rx="11" ry="11" style="stroke:#222222;stroke-width:1.0;"/><ellipse cx="788" cy="407.0625" fill="#222222" rx="6" ry="6" style="stroke:#222222;stroke-width:1.0;"/><line style="stroke:#181818;stroke-width:1.0;" x1="114" x2="114" y1="316.0625" y2="336.0625"/><polygon fill="#181818" points="110,326.0625,114,336.0625,118,326.0625,114,330.0625" style="stroke:#181818;stroke-width:1.0;"/><line style="stroke:#181818;stroke-width:1.0;" x1="124" x2="114" y1="208.707" y2="208.707"/><line style="stroke:#181818;stroke-width:1.0;" x1="114" x2="114" y1="208.707" y2="280.9688"/><polygon fill="#181818" points="110,270.9688,114,280.9688,118,270.9688,114,274.9688" style="stroke:#181818;stroke-width:1.0;"/><line style="stroke:#181818;stroke-width:1.0;" x1="361" x2="371" y1="208.707" y2="208.707"/><line style="stroke:#181818;stroke-width:1.0;" x1="371" x2="371" y1="208.707" y2="280.9688"/><polygon fill="#181818" points="367,270.9688,371,280.9688,375,270.9688,371,274.9688" style="stroke:#181818;stroke-width:1.0;"/><line style="stroke:#181818;stroke-width:1.0;" x1="371" x2="371" y1="316.0625" y2="361.0625"/><line style="stroke:#181818;stroke-width:1.0;" x1="371" x2="242.5" y1="361.0625" y2="361.0625"/><line style="stroke:#181818;stroke-width:1.0;" x1="242.5" x2="242.5" y1="361.0625" y2="376.0625"/><polygon fill="#181818" points="238.5,366.0625,242.5,376.0625,246.5,366.0625,242.5,370.0625" style="stroke:#181818;stroke-width:1.0;"/><line style="stroke:#181818;stroke-width:1.0;" x1="537" x2="537" y1="260.7188" y2="295.7188"/><polygon fill="#181818" points="533,285.7188,537,295.7188,541,285.7188,537,289.7188" style="stroke:#181818;stroke-width:1.0;"/><line style="stroke:#181818;stroke-width:1.0;" x1="548" x2="537" y1="181.0352" y2="181.0352"/><line style="stroke:#181818;stroke-width:1.0;" x1="537" x2="537" y1="181.0352" y2="225.625"/><polygon fill="#181818" points="533,215.625,537,225.625,541,215.625,537,219.625" style="stroke:#181818;stroke-width:1.0;"/><line style="stroke:#181818;stroke-width:1.0;" x1="702" x2="713" y1="181.0352" y2="181.0352"/><line style="stroke:#181818;stroke-width:1.0;" x1="713" x2="713" y1="181.0352" y2="225.625"/><polygon fill="#181818" points="709,215.625,713,225.625,717,215.625,713,219.625" style="stroke:#181818;stroke-width:1.0;"/><line style="stroke:#181818;stroke-width:1.0;" x1="713" x2="713" y1="260.7188" y2="321.0625"/><line style="stroke:#181818;stroke-width:1.0;" x1="713" x2="625" y1="321.0625" y2="321.0625"/><line style="stroke:#181818;stroke-width:1.0;" x1="625" x2="625" y1="321.0625" y2="376.0625"/><polygon fill="#181818" points="621,366.0625,625,376.0625,629,366.0625,625,370.0625" style="stroke:#181818;stroke-width:1.0;"/><line style="stroke:#181818;stroke-width:1.0;" x1="889" x2="889" y1="233.0469" y2="268.0469"/><polygon fill="#181818" points="885,258.0469,889,268.0469,893,258.0469,889,262.0469" style="stroke:#181818;stroke-width:1.0;"/><line style="stroke:#181818;stroke-width:1.0;" x1="918" x2="889" y1="167.1992" y2="167.1992"/><line style="stroke:#181818;stroke-width:1.0;" x1="889" x2="889" y1="167.1992" y2="197.9531"/><polygon fill="#181818" points="885,187.9531,889,197.9531,893,187.9531,889,191.9531" style="stroke:#181818;stroke-width:1.0;"/><line style="stroke:#181818;stroke-width:1.0;" x1="1036" x2="1065" y1="167.1992" y2="167.1992"/><line style="stroke:#181818;stroke-width:1.0;" x1="1065" x2="1065" y1="167.1992" y2="197.9531"/><polygon fill="#181818" points="1061,187.9531,1065,197.9531,1069,187.9531,1065,191.9531" style="stroke:#181818;stroke-width:1.0;"/><line style="stroke:#181818;stroke-width:1.0;" x1="1065" x2="1065" y1="233.0469" y2="294.0469"/><line style="stroke:#181818;stroke-width:1.0;" x1="1065" x2="977" y1="294.0469" y2="294.0469"/><line style="stroke:#181818;stroke-width:1.0;" x1="977" x2="977" y1="294.0469" y2="376.0625"/><polygon fill="#181818" points="973,366.0625,977,376.0625,981,366.0625,977,370.0625" style="stroke:#181818;stroke-width:1.0;"/><line style="stroke:#181818;stroke-width:1.0;" x1="1357" x2="1357" y1="256.8945" y2="291.8945"/><polygon fill="#181818" points="1353,281.8945,1357,291.8945,1361,281.8945,1357,285.8945" style="stroke:#181818;stroke-width:1.0;"/><line style="stroke:#181818;stroke-width:1.0;" x1="1204" x2="1183" y1="175.9531" y2="175.9531"/><line style="stroke:#181818;stroke-width:1.0;" x1="1183" x2="1183" y1="175.9531" y2="206.707"/><polygon fill="#181818" points="1179,196.707,1183,206.707,1187,196.707,1183,200.707" style="stroke:#181818;stroke-width:1.0;"/><line style="stroke:#181818;stroke-width:1.0;" x1="1336" x2="1357" y1="175.9531" y2="175.9531"/><line style="stroke:#181818;stroke-width:1.0;" x1="1357" x2="1357" y1="175.9531" y2="206.707"/><polygon fill="#181818" points="1353,196.707,1357,206.707,1361,196.707,1357,200.707" style="stroke:#181818;stroke-width:1.0;"/><line style="stroke:#181818;stroke-width:1.0;" x1="1183" x2="1183" y1="241.8008" y2="317.8945"/><line style="stroke:#181818;stroke-width:1.0;" x1="1183" x2="1270" y1="317.8945" y2="317.8945"/><line style="stroke:#181818;stroke-width:1.0;" x1="1270" x2="1270" y1="317.8945" y2="376.0625"/><polygon fill="#181818" points="1266,366.0625,1270,376.0625,1274,366.0625,1270,370.0625" style="stroke:#181818;stroke-width:1.0;"/><line style="stroke:#181818;stroke-width:1.0;" x1="242.5" x2="242.5" y1="112.6094" y2="146.4453"/><polygon fill="#181818" points="238.5,136.4453,242.5,146.4453,246.5,136.4453,242.5,140.4453" style="stroke:#181818;stroke-width:1.0;"/><line style="stroke:#181818;stroke-width:1.0;" x1="625" x2="625" y1="112.6094" y2="146.4453"/><polygon fill="#181818" points="621,136.4453,625,146.4453,629,136.4453,625,140.4453" style="stroke:#181818;stroke-width:1.0;"/><line style="stroke:#181818;stroke-width:1.0;" x1="977" x2="977" y1="112.6094" y2="146.4453"/><polygon fill="#181818" points="973,136.4453,977,146.4453,981,136.4453,977,140.4453" style="stroke:#181818;stroke-width:1.0;"/><line style="stroke:#181818;stroke-width:1.0;" x1="1270" x2="1270" y1="121.3633" y2="155.1992"/><polygon fill="#181818" points="1266,145.1992,1270,155.1992,1274,145.1992,1270,149.1992" style="stroke:#181818;stroke-width:1.0;"/><line style="stroke:#181818;stroke-width:1.0;" x1="278" x2="580.5" y1="100.6094" y2="100.6094"/><polygon fill="#181818" points="570.5,96.6094,580.5,100.6094,570.5,104.6094,574.5,100.6094" style="stroke:#181818;stroke-width:1.0;"/><line style="stroke:#181818;stroke-width:1.0;" x1="669.5" x2="911.5" y1="100.6094" y2="100.6094"/><polygon fill="#181818" points="901.5,96.6094,911.5,100.6094,901.5,104.6094,905.5,100.6094" style="stroke:#181818;stroke-width:1.0;"/><line style="stroke:#181818;stroke-width:1.0;" x1="1042.5" x2="1179.5" y1="100.6094" y2="100.6094"/><polygon fill="#181818" points="1169.5,96.6094,1179.5,100.6094,1169.5,104.6094,1173.5,100.6094" style="stroke:#181818;stroke-width:1.0;"/><line style="stroke:#181818;stroke-width:1.0;" x1="788" x2="788" y1="68.6094" y2="73.6094"/><line style="stroke:#181818;stroke-width:1.0;" x1="788" x2="242.5" y1="73.6094" y2="73.6094"/><line style="stroke:#181818;stroke-width:1.0;" x1="242.5" x2="242.5" y1="73.6094" y2="88.6094"/><polygon fill="#181818" points="238.5,78.6094,242.5,88.6094,246.5,78.6094,242.5,82.6094" style="stroke:#181818;stroke-width:1.0;"/><line style="stroke:#181818;stroke-width:1.0;" x1="1360.5" x2="1521" y1="100.6094" y2="100.6094"/><line style="stroke:#181818;stroke-width:1.0;" x1="1521" x2="1521" y1="100.6094" y2="235.9121"/><polygon fill="#181818" points="1517,225.9121,1521,235.9121,1525,225.9121,1521,229.9121" style="stroke:#181818;stroke-width:1.0;"/><line style="stroke:#181818;stroke-width:1.0;" x1="1521" x2="1521" y1="271.0059" y2="376.0625"/><polygon fill="#181818" points="1517,366.0625,1521,376.0625,1525,366.0625,1521,370.0625" style="stroke:#181818;stroke-width:1.0;"/><line style="stroke:#181818;stroke-width:1.0;" x1="242.5" x2="1521" y1="376.0625" y2="376.0625"/><line style="stroke:#181818;stroke-width:1.0;" x1="788" x2="788" y1="376.0625" y2="396.0625"/><polygon fill="#181818" points="784,386.0625,788,396.0625,792,386.0625,788,390.0625" style="stroke:#181818;stroke-width:1.0;"/><!--SRC=[pLJDJkCm4BxdAKP1Gk702r1ngCgowc41jK8h92w3FUbQDUDWEwqgzU5t4hCqj0RHoueS8db-lfdvvYUQQ0dA-Ok5YMCc5OrZ2D4RNi0AhT7OIshhrcLHX8W-ZWfJGwKyQU9eq9v1_4CCrOR2MG7ocReQjvqi6fNSBozXBD0hkZ9UOZY_cNAaXST86XvvczDwx6KvzHMjZAA9qtGjUUKiVY7ZWlIqJp5kiYRpQHwxnjR6dEgtyqlhy1tg5YQMqCDz83_LSElX3aDOEw-JTb3dd5JhnUs0h-uxUI3RrNBnOpQxdKapdfyC9_9kN8HnfoGzUhCdVdsG3GGLkm7KJq_42U-YyKwH18yEh5iOVdLYRUgYTvLceL8KWfWiYNFDFBh2fDYRWLwscvhqJg7xo0gjVKArF9OU5dhmVz437sOfXaSnCQZysrLykBro88PTtz-CptHpyjsstib9KQR9dWkeobQcosZOGfl-yYm5xVGKokOV-1QQjIxt1odFtXTAFkJfFUNTmCCDFXES3qTU5c2oc-Ak5xLhXNp8j6B7wbkWOMQGIItvoALrpUWl]--></g></svg>