<?xml version="1.0" encoding="us-ascii" standalone="no"?><svg xmlns="http://www.w3.org/2000/svg" xmlns:xlink="http://www.w3.org/1999/xlink" contentStyleType="text/css" height="1585px" preserveAspectRatio="none" style="width:1999px;height:1585px;background:#FFFFFF;" version="1.1" viewBox="0 0 1999 1585" width="1999px" zoomAndPan="magnify"><defs/><g><text fill="#000000" font-family="sans-serif" font-size="14" font-weight="bold" lengthAdjust="spacing" textLength="208" x="894.75" y="29.5332">SqlClientX Sequence Diagram</text><line style="stroke:#181818;stroke-width:0.5;stroke-dasharray:5.0,5.0;" x1="26" x2="26" y1="93.8281" y2="1531.5391"/><line style="stroke:#181818;stroke-width:0.5;stroke-dasharray:5.0,5.0;" x1="197.5" x2="197.5" y1="93.8281" y2="1531.5391"/><line style="stroke:#181818;stroke-width:0.5;stroke-dasharray:5.0,5.0;" x1="336.5" x2="336.5" y1="93.8281" y2="1531.5391"/><line style="stroke:#181818;stroke-width:0.5;stroke-dasharray:5.0,5.0;" x1="503.5" x2="503.5" y1="93.8281" y2="1531.5391"/><line style="stroke:#181818;stroke-width:0.5;stroke-dasharray:5.0,5.0;" x1="719.5" x2="719.5" y1="93.8281" y2="1531.5391"/><line style="stroke:#181818;stroke-width:0.5;stroke-dasharray:5.0,5.0;" x1="945" x2="945" y1="93.8281" y2="1531.5391"/><line style="stroke:#181818;stroke-width:0.5;stroke-dasharray:5.0,5.0;" x1="1075" x2="1075" y1="93.8281" y2="1531.5391"/><line style="stroke:#181818;stroke-width:0.5;stroke-dasharray:5.0,5.0;" x1="1347.5" x2="1347.5" y1="93.8281" y2="1531.5391"/><line style="stroke:#181818;stroke-width:0.5;stroke-dasharray:5.0,5.0;" x1="1526.5" x2="1526.5" y1="93.8281" y2="1531.5391"/><line style="stroke:#181818;stroke-width:0.5;stroke-dasharray:5.0,5.0;" x1="1695.5" x2="1695.5" y1="93.8281" y2="1531.5391"/><line style="stroke:#181818;stroke-width:0.5;stroke-dasharray:5.0,5.0;" x1="1900.5" x2="1900.5" y1="93.8281" y2="1531.5391"/><rect fill="#E2E2F0" height="31.6094" rx="2.5" ry="2.5" style="stroke:#181818;stroke-width:0.5;" width="43" x="5" y="61.2188"/><text fill="#000000" font-family="sans-serif" font-size="14" lengthAdjust="spacing" textLength="29" x="12" y="82.752">User</text><rect fill="#E2E2F0" height="31.6094" rx="2.5" ry="2.5" style="stroke:#181818;stroke-width:0.5;" width="43" x="5" y="1530.5391"/><text fill="#000000" font-family="sans-serif" font-size="14" lengthAdjust="spacing" textLength="29" x="12" y="1552.0723">User</text><rect fill="#E2E2F0" height="31.6094" rx="2.5" ry="2.5" style="stroke:#181818;stroke-width:0.5;" width="106" x="144.5" y="61.2188"/><text fill="#000000" font-family="sans-serif" font-size="14" lengthAdjust="spacing" textLength="92" x="151.5" y="82.752">SqlConnection</text><rect fill="#E2E2F0" height="31.6094" rx="2.5" ry="2.5" style="stroke:#181818;stroke-width:0.5;" width="106" x="144.5" y="1530.5391"/><text fill="#000000" font-family="sans-serif" font-size="14" lengthAdjust="spacing" textLength="92" x="151.5" y="1552.0723">SqlConnection</text><rect fill="#E2E2F0" height="31.6094" rx="2.5" ry="2.5" style="stroke:#181818;stroke-width:0.5;" width="153" x="260.5" y="61.2188"/><text fill="#000000" font-family="sans-serif" font-size="14" lengthAdjust="spacing" textLength="139" x="267.5" y="82.752">SqlInternalConnection</text><rect fill="#E2E2F0" height="31.6094" rx="2.5" ry="2.5" style="stroke:#181818;stroke-width:0.5;" width="153" x="260.5" y="1530.5391"/><text fill="#000000" font-family="sans-serif" font-size="14" lengthAdjust="spacing" textLength="139" x="267.5" y="1552.0723">SqlInternalConnection</text><rect fill="#E2E2F0" height="31.6094" rx="2.5" ry="2.5" style="stroke:#181818;stroke-width:0.5;" width="160" x="423.5" y="61.2188"/><text fill="#000000" font-family="sans-serif" font-size="14" lengthAdjust="spacing" textLength="146" x="430.5" y="82.752">DbConnectionManager</text><rect fill="#E2E2F0" height="31.6094" rx="2.5" ry="2.5" style="stroke:#181818;stroke-width:0.5;" width="160" x="423.5" y="1530.5391"/><text fill="#000000" font-family="sans-serif" font-size="14" lengthAdjust="spacing" textLength="146" x="430.5" y="1552.0723">DbConnectionManager</text><rect fill="#E2E2F0" height="31.6094" rx="2.5" ry="2.5" style="stroke:#181818;stroke-width:0.5;" width="98" x="670.5" y="61.2188"/><text fill="#000000" font-family="sans-serif" font-size="14" lengthAdjust="spacing" textLength="84" x="677.5" y="82.752">LoginHandler</text><rect fill="#E2E2F0" height="31.6094" rx="2.5" ry="2.5" style="stroke:#181818;stroke-width:0.5;" width="98" x="670.5" y="1530.5391"/><text fill="#000000" font-family="sans-serif" font-size="14" lengthAdjust="spacing" textLength="84" x="677.5" y="1552.0723">LoginHandler</text><rect fill="#E2E2F0" height="31.6094" rx="2.5" ry="2.5" style="stroke:#181818;stroke-width:0.5;" width="157" x="867" y="61.2188"/><text fill="#000000" font-family="sans-serif" font-size="14" lengthAdjust="spacing" textLength="143" x="874" y="82.752">AuthenticationProvider</text><rect fill="#E2E2F0" height="31.6094" rx="2.5" ry="2.5" style="stroke:#181818;stroke-width:0.5;" width="157" x="867" y="1530.5391"/><text fill="#000000" font-family="sans-serif" font-size="14" lengthAdjust="spacing" textLength="143" x="874" y="1552.0723">AuthenticationProvider</text><rect fill="#E2E2F0" height="49.2188" rx="2.5" ry="2.5" style="stroke:#181818;stroke-width:0.5;" width="83" x="1034" y="43.6094"/><text fill="#000000" font-family="sans-serif" font-size="14" font-style="italic" lengthAdjust="spacing" textLength="38" x="1056.5" y="65.1426">&#171;Net&#187;</text><text fill="#000000" font-family="sans-serif" font-size="14" lengthAdjust="spacing" textLength="69" x="1041" y="82.752">NetworkUtil</text><rect fill="#E2E2F0" height="49.2188" rx="2.5" ry="2.5" style="stroke:#181818;stroke-width:0.5;" width="83" x="1034" y="1530.5391"/><text fill="#000000" font-family="sans-serif" font-size="14" font-style="italic" lengthAdjust="spacing" textLength="38" x="1056.5" y="1552.0723">&#171;Net&#187;</text><text fill="#000000" font-family="sans-serif" font-size="14" lengthAdjust="spacing" textLength="69" x="1041" y="1569.6816">NetworkUtil</text><rect fill="#E2E2F0" height="49.2188" rx="2.5" ry="2.5" style="stroke:#181818;stroke-width:0.5;" width="108" x="1293.5" y="43.6094"/><text fill="#000000" font-family="sans-serif" font-size="14" font-style="italic" lengthAdjust="spacing" textLength="38" x="1328.5" y="65.1426">&#171;Net&#187;</text><text fill="#000000" font-family="sans-serif" font-size="14" lengthAdjust="spacing" textLength="94" x="1300.5" y="82.752">TcpMessenger</text><rect fill="#E2E2F0" height="49.2188" rx="2.5" ry="2.5" style="stroke:#181818;stroke-width:0.5;" width="108" x="1293.5" y="1530.5391"/><text fill="#000000" font-family="sans-serif" font-size="14" font-style="italic" lengthAdjust="spacing" textLength="38" x="1328.5" y="1552.0723">&#171;Net&#187;</text><text fill="#000000" font-family="sans-serif" font-size="14" lengthAdjust="spacing" textLength="94" x="1300.5" y="1569.6816">TcpMessenger</text><rect fill="#F08080" height="31.6094" rx="2.5" ry="2.5" style="stroke:#181818;stroke-width:0.5;" width="114" x="1469.5" y="61.2188"/><text fill="#000000" font-family="sans-serif" font-size="14" lengthAdjust="spacing" textLength="100" x="1476.5" y="82.752">System.Net.Dns</text><rect fill="#F08080" height="31.6094" rx="2.5" ry="2.5" style="stroke:#181818;stroke-width:0.5;" width="114" x="1469.5" y="1530.5391"/><text fill="#000000" font-family="sans-serif" font-size="14" lengthAdjust="spacing" textLength="100" x="1476.5" y="1552.0723">System.Net.Dns</text><rect fill="#F08080" height="31.6094" rx="2.5" ry="2.5" style="stroke:#181818;stroke-width:0.5;" width="204" x="1593.5" y="61.2188"/><text fill="#000000" font-family="sans-serif" font-size="14" lengthAdjust="spacing" textLength="190" x="1600.5" y="82.752">System.Net.Sockets.UdpClient</text><rect fill="#F08080" height="31.6094" rx="2.5" ry="2.5" style="stroke:#181818;stroke-width:0.5;" width="204" x="1593.5" y="1530.5391"/><text fill="#000000" font-family="sans-serif" font-size="14" lengthAdjust="spacing" textLength="190" x="1600.5" y="1552.0723">System.Net.Sockets.UdpClient</text><rect fill="#F08080" height="31.6094" rx="2.5" ry="2.5" style="stroke:#181818;stroke-width:0.5;" width="186" x="1807.5" y="61.2188"/><text fill="#000000" font-family="sans-serif" font-size="14" lengthAdjust="spacing" textLength="172" x="1814.5" y="82.752">System.Net.Sockets.Socket</text><rect fill="#F08080" height="31.6094" rx="2.5" ry="2.5" style="stroke:#181818;stroke-width:0.5;" width="186" x="1807.5" y="1530.5391"/><text fill="#000000" font-family="sans-serif" font-size="14" lengthAdjust="spacing" textLength="172" x="1814.5" y="1552.0723">System.Net.Sockets.Socket</text><line style="stroke:#181818;stroke-width:1.0;" x1="195.5" x2="185.5" y1="126.1797" y2="122.1797"/><line style="stroke:#181818;stroke-width:1.0;" x1="195.5" x2="185.5" y1="126.1797" y2="130.1797"/><line style="stroke:#181818;stroke-width:1.0;" x1="26.5" x2="196.5" y1="126.1797" y2="126.1797"/><text fill="#000000" font-family="sans-serif" font-size="13" lengthAdjust="spacing" textLength="76" x="33.5" y="121.3232">OpenAsync()</text><line style="stroke:#181818;stroke-width:1.0;" x1="501.5" x2="491.5" y1="156.5313" y2="152.5313"/><line style="stroke:#181818;stroke-width:1.0;" x1="501.5" x2="491.5" y1="156.5313" y2="160.5313"/><line style="stroke:#181818;stroke-width:1.0;" x1="197.5" x2="502.5" y1="156.5313" y2="156.5313"/><text fill="#000000" font-family="sans-serif" font-size="13" lengthAdjust="spacing" textLength="131" x="204.5" y="151.6748">GetConnectionAsync()</text><line style="stroke:#181818;stroke-width:1.0;" x1="503.5" x2="545.5" y1="186.8828" y2="186.8828"/><line style="stroke:#181818;stroke-width:1.0;" x1="545.5" x2="545.5" y1="186.8828" y2="199.8828"/><line style="stroke:#181818;stroke-width:1.0;" x1="504.5" x2="545.5" y1="199.8828" y2="199.8828"/><line style="stroke:#181818;stroke-width:1.0;" x1="504.5" x2="514.5" y1="199.8828" y2="195.8828"/><line style="stroke:#181818;stroke-width:1.0;" x1="504.5" x2="514.5" y1="199.8828" y2="203.8828"/><text fill="#000000" font-family="sans-serif" font-size="13" lengthAdjust="spacing" textLength="140" x="510.5" y="182.0264">OpenLoginEnlistAsync()</text><line style="stroke:#181818;stroke-width:1.0;" x1="503.5" x2="545.5" y1="230.2344" y2="230.2344"/><line style="stroke:#181818;stroke-width:1.0;" x1="545.5" x2="545.5" y1="230.2344" y2="243.2344"/><line style="stroke:#181818;stroke-width:1.0;" x1="504.5" x2="545.5" y1="243.2344" y2="243.2344"/><line style="stroke:#181818;stroke-width:1.0;" x1="504.5" x2="514.5" y1="243.2344" y2="239.2344"/><line style="stroke:#181818;stroke-width:1.0;" x1="504.5" x2="514.5" y1="243.2344" y2="247.2344"/><text fill="#000000" font-family="sans-serif" font-size="13" lengthAdjust="spacing" textLength="147" x="510.5" y="225.3779">LoginWithFailoverAsync()</text><line style="stroke:#181818;stroke-width:1.0;" x1="503.5" x2="545.5" y1="273.5859" y2="273.5859"/><line style="stroke:#181818;stroke-width:1.0;" x1="545.5" x2="545.5" y1="273.5859" y2="286.5859"/><line style="stroke:#181818;stroke-width:1.0;" x1="504.5" x2="545.5" y1="286.5859" y2="286.5859"/><line style="stroke:#181818;stroke-width:1.0;" x1="504.5" x2="514.5" y1="286.5859" y2="282.5859"/><line style="stroke:#181818;stroke-width:1.0;" x1="504.5" x2="514.5" y1="286.5859" y2="290.5859"/><text fill="#000000" font-family="sans-serif" font-size="13" lengthAdjust="spacing" textLength="146" x="510.5" y="268.7295">AttemptOneLoginAsync()</text><line style="stroke:#181818;stroke-width:1.0;" x1="717.5" x2="707.5" y1="316.9375" y2="312.9375"/><line style="stroke:#181818;stroke-width:1.0;" x1="717.5" x2="707.5" y1="316.9375" y2="320.9375"/><line style="stroke:#181818;stroke-width:1.0;" x1="503.5" x2="718.5" y1="316.9375" y2="316.9375"/><text fill="#000000" font-family="sans-serif" font-size="13" lengthAdjust="spacing" textLength="93" x="510.5" y="312.0811">ConnectAsync()</text><line style="stroke:#181818;stroke-width:1.0;" x1="719.5" x2="761.5" y1="347.2891" y2="347.2891"/><line style="stroke:#181818;stroke-width:1.0;" x1="761.5" x2="761.5" y1="347.2891" y2="360.2891"/><line style="stroke:#181818;stroke-width:1.0;" x1="720.5" x2="761.5" y1="360.2891" y2="360.2891"/><line style="stroke:#181818;stroke-width:1.0;" x1="720.5" x2="730.5" y1="360.2891" y2="356.2891"/><line style="stroke:#181818;stroke-width:1.0;" x1="720.5" x2="730.5" y1="360.2891" y2="364.2891"/><text fill="#000000" font-family="sans-serif" font-size="13" lengthAdjust="spacing" textLength="167" x="726.5" y="342.4326">CreateSSPIContextProvider()</text><line style="stroke:#181818;stroke-width:1.0;" x1="719.5" x2="761.5" y1="390.6406" y2="390.6406"/><line style="stroke:#181818;stroke-width:1.0;" x1="761.5" x2="761.5" y1="390.6406" y2="403.6406"/><line style="stroke:#181818;stroke-width:1.0;" x1="720.5" x2="761.5" y1="403.6406" y2="403.6406"/><line style="stroke:#181818;stroke-width:1.0;" x1="720.5" x2="730.5" y1="403.6406" y2="399.6406"/><line style="stroke:#181818;stroke-width:1.0;" x1="720.5" x2="730.5" y1="403.6406" y2="407.6406"/><text fill="#000000" font-family="sans-serif" font-size="13" lengthAdjust="spacing" textLength="197" x="726.5" y="385.7842">CreatePhysicalMessengerAsync()</text><line style="stroke:#181818;stroke-width:1.0;" x1="1073.5" x2="1063.5" y1="433.9922" y2="429.9922"/><line style="stroke:#181818;stroke-width:1.0;" x1="1073.5" x2="1063.5" y1="433.9922" y2="437.9922"/><line style="stroke:#181818;stroke-width:1.0;" x1="719.5" x2="1074.5" y1="433.9922" y2="433.9922"/><text fill="#000000" font-family="sans-serif" font-size="13" lengthAdjust="spacing" textLength="183" x="726.5" y="429.1357">static CreateMessengerAsync()</text><line style="stroke:#181818;stroke-width:1.0;" x1="1075.5" x2="1117.5" y1="464.3438" y2="464.3438"/><line style="stroke:#181818;stroke-width:1.0;" x1="1117.5" x2="1117.5" y1="464.3438" y2="477.3438"/><line style="stroke:#181818;stroke-width:1.0;" x1="1076.5" x2="1117.5" y1="477.3438" y2="477.3438"/><line style="stroke:#181818;stroke-width:1.0;" x1="1076.5" x2="1086.5" y1="477.3438" y2="473.3438"/><line style="stroke:#181818;stroke-width:1.0;" x1="1076.5" x2="1086.5" y1="477.3438" y2="481.3438"/><text fill="#000000" font-family="sans-serif" font-size="13" lengthAdjust="spacing" textLength="258" x="1082.5" y="459.4873">static CreateAndOpenTcpMessengerAsync()</text><line style="stroke:#181818;stroke-width:1.0;" x1="1075.5" x2="1117.5" y1="507.6953" y2="507.6953"/><line style="stroke:#181818;stroke-width:1.0;" x1="1117.5" x2="1117.5" y1="507.6953" y2="520.6953"/><line style="stroke:#181818;stroke-width:1.0;" x1="1076.5" x2="1117.5" y1="520.6953" y2="520.6953"/><line style="stroke:#181818;stroke-width:1.0;" x1="1076.5" x2="1086.5" y1="520.6953" y2="516.6953"/><line style="stroke:#181818;stroke-width:1.0;" x1="1076.5" x2="1086.5" y1="520.6953" y2="524.6953"/><text fill="#000000" font-family="sans-serif" font-size="13" lengthAdjust="spacing" textLength="152" x="1082.5" y="502.8389">GetPortByInstanceName()</text><line style="stroke:#181818;stroke-width:1.0;" x1="1524.5" x2="1514.5" y1="551.0469" y2="547.0469"/><line style="stroke:#181818;stroke-width:1.0;" x1="1524.5" x2="1514.5" y1="551.0469" y2="555.0469"/><line style="stroke:#181818;stroke-width:1.0;" x1="1075.5" x2="1525.5" y1="551.0469" y2="551.0469"/><text fill="#000000" font-family="sans-serif" font-size="13" lengthAdjust="spacing" textLength="155" x="1082.5" y="546.1904">GetHostAddressesAsync()</text><line style="stroke:#181818;stroke-width:1.0;" x1="1076.5" x2="1086.5" y1="581.3984" y2="577.3984"/><line style="stroke:#181818;stroke-width:1.0;" x1="1076.5" x2="1086.5" y1="581.3984" y2="585.3984"/><line style="stroke:#181818;stroke-width:1.0;" x1="1075.5" x2="1525.5" y1="581.3984" y2="581.3984"/><text fill="#000000" font-family="sans-serif" font-size="13" lengthAdjust="spacing" textLength="72" x="1092.5" y="576.542">IPAddress []</text><line style="stroke:#181818;stroke-width:1.0;" x1="1075.5" x2="1117.5" y1="611.75" y2="611.75"/><line style="stroke:#181818;stroke-width:1.0;" x1="1117.5" x2="1117.5" y1="611.75" y2="624.75"/><line style="stroke:#181818;stroke-width:1.0;" x1="1076.5" x2="1117.5" y1="624.75" y2="624.75"/><line style="stroke:#181818;stroke-width:1.0;" x1="1076.5" x2="1086.5" y1="624.75" y2="620.75"/><line style="stroke:#181818;stroke-width:1.0;" x1="1076.5" x2="1086.5" y1="624.75" y2="628.75"/><text fill="#000000" font-family="sans-serif" font-size="13" lengthAdjust="spacing" textLength="113" x="1082.5" y="606.8936">SendUDPRequest()</text><line style="stroke:#181818;stroke-width:1.0;" x1="1693.5" x2="1683.5" y1="655.1016" y2="651.1016"/><line style="stroke:#181818;stroke-width:1.0;" x1="1693.5" x2="1683.5" y1="655.1016" y2="659.1016"/><line style="stroke:#181818;stroke-width:1.0;" x1="1075.5" x2="1694.5" y1="655.1016" y2="655.1016"/><text fill="#000000" font-family="sans-serif" font-size="13" lengthAdjust="spacing" textLength="75" x="1082.5" y="650.2451">SendAsync()</text><line style="stroke:#181818;stroke-width:1.0;" x1="1695.5" x2="1737.5" y1="685.4531" y2="685.4531"/><line style="stroke:#181818;stroke-width:1.0;" x1="1737.5" x2="1737.5" y1="685.4531" y2="698.4531"/><line style="stroke:#181818;stroke-width:1.0;" x1="1696.5" x2="1737.5" y1="698.4531" y2="698.4531"/><line style="stroke:#181818;stroke-width:1.0;" x1="1696.5" x2="1706.5" y1="698.4531" y2="694.4531"/><line style="stroke:#181818;stroke-width:1.0;" x1="1696.5" x2="1706.5" y1="698.4531" y2="702.4531"/><text fill="#000000" font-family="sans-serif" font-size="13" lengthAdjust="spacing" textLength="90" x="1702.5" y="680.5967">ReceiveAsync()</text><line style="stroke:#181818;stroke-width:1.0;" x1="1076.5" x2="1086.5" y1="728.8047" y2="724.8047"/><line style="stroke:#181818;stroke-width:1.0;" x1="1076.5" x2="1086.5" y1="728.8047" y2="732.8047"/><line style="stroke:#181818;stroke-width:1.0;" x1="1075.5" x2="1694.5" y1="728.8047" y2="728.8047"/><text fill="#000000" font-family="sans-serif" font-size="13" lengthAdjust="spacing" textLength="66" x="1092.5" y="723.9482">Response()</text><line style="stroke:#181818;stroke-width:1.0;" x1="1075.5" x2="1117.5" y1="759.1563" y2="759.1563"/><line style="stroke:#181818;stroke-width:1.0;" x1="1117.5" x2="1117.5" y1="759.1563" y2="772.1563"/><line style="stroke:#181818;stroke-width:1.0;" x1="1076.5" x2="1117.5" y1="772.1563" y2="772.1563"/><line style="stroke:#181818;stroke-width:1.0;" x1="1076.5" x2="1086.5" y1="772.1563" y2="768.1563"/><line style="stroke:#181818;stroke-width:1.0;" x1="1076.5" x2="1086.5" y1="772.1563" y2="776.1563"/><text fill="#000000" font-family="sans-serif" font-size="13" lengthAdjust="spacing" textLength="155" x="1082.5" y="754.2998">GetSqlServerSPNsAsync()</text><line style="stroke:#181818;stroke-width:1.0;" x1="1524.5" x2="1514.5" y1="802.5078" y2="798.5078"/><line style="stroke:#181818;stroke-width:1.0;" x1="1524.5" x2="1514.5" y1="802.5078" y2="806.5078"/><line style="stroke:#181818;stroke-width:1.0;" x1="1075.5" x2="1525.5" y1="802.5078" y2="802.5078"/><text fill="#000000" font-family="sans-serif" font-size="13" lengthAdjust="spacing" textLength="124" x="1082.5" y="797.6514">GetHostEntryAsync()</text><line style="stroke:#181818;stroke-width:1.0;" x1="1076.5" x2="1086.5" y1="832.8594" y2="828.8594"/><line style="stroke:#181818;stroke-width:1.0;" x1="1076.5" x2="1086.5" y1="832.8594" y2="836.8594"/><line style="stroke:#181818;stroke-width:1.0;" x1="1075.5" x2="1525.5" y1="832.8594" y2="832.8594"/><text fill="#000000" font-family="sans-serif" font-size="13" lengthAdjust="spacing" textLength="70" x="1092.5" y="828.0029">IPHostEntry</text><line style="stroke:#181818;stroke-width:1.0;" x1="1075.5" x2="1117.5" y1="863.2109" y2="863.2109"/><line style="stroke:#181818;stroke-width:1.0;" x1="1117.5" x2="1117.5" y1="863.2109" y2="876.2109"/><line style="stroke:#181818;stroke-width:1.0;" x1="1076.5" x2="1117.5" y1="876.2109" y2="876.2109"/><line style="stroke:#181818;stroke-width:1.0;" x1="1076.5" x2="1086.5" y1="876.2109" y2="872.2109"/><line style="stroke:#181818;stroke-width:1.0;" x1="1076.5" x2="1086.5" y1="876.2109" y2="880.2109"/><text fill="#000000" font-family="sans-serif" font-size="13" lengthAdjust="spacing" textLength="120" x="1082.5" y="858.3545">new TcpMessenger()</text><line style="stroke:#181818;stroke-width:1.0;" x1="1345.5" x2="1335.5" y1="906.5625" y2="902.5625"/><line style="stroke:#181818;stroke-width:1.0;" x1="1345.5" x2="1335.5" y1="906.5625" y2="910.5625"/><line style="stroke:#181818;stroke-width:1.0;" x1="1075.5" x2="1346.5" y1="906.5625" y2="906.5625"/><text fill="#000000" font-family="sans-serif" font-size="13" lengthAdjust="spacing" textLength="76" x="1082.5" y="901.7061">OpenAsync()</text><line style="stroke:#181818;stroke-width:1.0;" x1="1347.5" x2="1389.5" y1="936.9141" y2="936.9141"/><line style="stroke:#181818;stroke-width:1.0;" x1="1389.5" x2="1389.5" y1="936.9141" y2="949.9141"/><line style="stroke:#181818;stroke-width:1.0;" x1="1348.5" x2="1389.5" y1="949.9141" y2="949.9141"/><line style="stroke:#181818;stroke-width:1.0;" x1="1348.5" x2="1358.5" y1="949.9141" y2="945.9141"/><line style="stroke:#181818;stroke-width:1.0;" x1="1348.5" x2="1358.5" y1="949.9141" y2="953.9141"/><text fill="#000000" font-family="sans-serif" font-size="13" lengthAdjust="spacing" textLength="135" x="1354.5" y="932.0576">InternalConnectAsync()</text><line style="stroke:#181818;stroke-width:1.0;" x1="1347.5" x2="1389.5" y1="980.2656" y2="980.2656"/><line style="stroke:#181818;stroke-width:1.0;" x1="1389.5" x2="1389.5" y1="980.2656" y2="993.2656"/><line style="stroke:#181818;stroke-width:1.0;" x1="1348.5" x2="1389.5" y1="993.2656" y2="993.2656"/><line style="stroke:#181818;stroke-width:1.0;" x1="1348.5" x2="1358.5" y1="993.2656" y2="989.2656"/><line style="stroke:#181818;stroke-width:1.0;" x1="1348.5" x2="1358.5" y1="993.2656" y2="997.2656"/><text fill="#000000" font-family="sans-serif" font-size="13" lengthAdjust="spacing" textLength="93" x="1354.5" y="975.4092">ConnectAsync()</text><line style="stroke:#181818;stroke-width:1.0;" x1="1524.5" x2="1514.5" y1="1023.6172" y2="1019.6172"/><line style="stroke:#181818;stroke-width:1.0;" x1="1524.5" x2="1514.5" y1="1023.6172" y2="1027.6172"/><line style="stroke:#181818;stroke-width:1.0;" x1="1347.5" x2="1525.5" y1="1023.6172" y2="1023.6172"/><text fill="#000000" font-family="sans-serif" font-size="13" lengthAdjust="spacing" textLength="155" x="1354.5" y="1018.7607">GetHostAddressesAsync()</text><line style="stroke:#181818;stroke-width:1.0;" x1="1348.5" x2="1358.5" y1="1053.9688" y2="1049.9688"/><line style="stroke:#181818;stroke-width:1.0;" x1="1348.5" x2="1358.5" y1="1053.9688" y2="1057.9688"/><line style="stroke:#181818;stroke-width:1.0;" x1="1347.5" x2="1525.5" y1="1053.9688" y2="1053.9688"/><text fill="#000000" font-family="sans-serif" font-size="13" lengthAdjust="spacing" textLength="72" x="1364.5" y="1049.1123">IPAddress []</text><line style="stroke:#181818;stroke-width:1.0;" x1="1898.5" x2="1888.5" y1="1084.3203" y2="1080.3203"/><line style="stroke:#181818;stroke-width:1.0;" x1="1898.5" x2="1888.5" y1="1084.3203" y2="1088.3203"/><line style="stroke:#181818;stroke-width:1.0;" x1="1347.5" x2="1899.5" y1="1084.3203" y2="1084.3203"/><text fill="#000000" font-family="sans-serif" font-size="13" lengthAdjust="spacing" textLength="93" x="1354.5" y="1079.4639">ConnectAsync()</text><line style="stroke:#181818;stroke-width:1.0;" x1="1348.5" x2="1358.5" y1="1114.6719" y2="1110.6719"/><line style="stroke:#181818;stroke-width:1.0;" x1="1348.5" x2="1358.5" y1="1114.6719" y2="1118.6719"/><line style="stroke:#181818;stroke-width:1.0;" x1="1347.5" x2="1899.5" y1="1114.6719" y2="1114.6719"/><text fill="#000000" font-family="sans-serif" font-size="13" lengthAdjust="spacing" textLength="113" x="1364.5" y="1109.8154">"connected socket"</text><line style="stroke:#181818;stroke-width:1.0;" x1="1076.5" x2="1086.5" y1="1145.0234" y2="1141.0234"/><line style="stroke:#181818;stroke-width:1.0;" x1="1076.5" x2="1086.5" y1="1145.0234" y2="1149.0234"/><line style="stroke:#181818;stroke-width:1.0;" x1="1075.5" x2="1346.5" y1="1145.0234" y2="1145.0234"/><text fill="#000000" font-family="sans-serif" font-size="13" lengthAdjust="spacing" textLength="180" x="1092.5" y="1140.167">"instance + connected Socket"</text><line style="stroke:#181818;stroke-width:1.0;" x1="720.5" x2="730.5" y1="1175.375" y2="1171.375"/><line style="stroke:#181818;stroke-width:1.0;" x1="720.5" x2="730.5" y1="1175.375" y2="1179.375"/><line style="stroke:#181818;stroke-width:1.0;" x1="719.5" x2="1074.5" y1="1175.375" y2="1175.375"/><text fill="#000000" font-family="sans-serif" font-size="13" lengthAdjust="spacing" textLength="127" x="736.5" y="1170.5186">"messenger instance"</text><line style="stroke:#181818;stroke-width:1.0;" x1="943.5" x2="933.5" y1="1205.7266" y2="1201.7266"/><line style="stroke:#181818;stroke-width:1.0;" x1="943.5" x2="933.5" y1="1205.7266" y2="1209.7266"/><line style="stroke:#181818;stroke-width:1.0;" x1="719.5" x2="944.5" y1="1205.7266" y2="1205.7266"/><text fill="#000000" font-family="sans-serif" font-size="13" lengthAdjust="spacing" textLength="55" x="726.5" y="1200.8701">Initialize()</text><line style="stroke:#181818;stroke-width:1.0;" x1="719.5" x2="761.5" y1="1236.0781" y2="1236.0781"/><line style="stroke:#181818;stroke-width:1.0;" x1="761.5" x2="761.5" y1="1236.0781" y2="1249.0781"/><line style="stroke:#181818;stroke-width:1.0;" x1="720.5" x2="761.5" y1="1249.0781" y2="1249.0781"/><line style="stroke:#181818;stroke-width:1.0;" x1="720.5" x2="730.5" y1="1249.0781" y2="1245.0781"/><line style="stroke:#181818;stroke-width:1.0;" x1="720.5" x2="730.5" y1="1249.0781" y2="1253.0781"/><text fill="#000000" font-family="sans-serif" font-size="13" lengthAdjust="spacing" textLength="187" x="726.5" y="1231.2217">SendPreloginHandshakeAsync()</text><line style="stroke:#181818;stroke-width:1.0;" x1="719.5" x2="761.5" y1="1279.4297" y2="1279.4297"/><line style="stroke:#181818;stroke-width:1.0;" x1="761.5" x2="761.5" y1="1279.4297" y2="1292.4297"/><line style="stroke:#181818;stroke-width:1.0;" x1="720.5" x2="761.5" y1="1292.4297" y2="1292.4297"/><line style="stroke:#181818;stroke-width:1.0;" x1="720.5" x2="730.5" y1="1292.4297" y2="1288.4297"/><line style="stroke:#181818;stroke-width:1.0;" x1="720.5" x2="730.5" y1="1292.4297" y2="1296.4297"/><text fill="#000000" font-family="sans-serif" font-size="13" lengthAdjust="spacing" textLength="212" x="726.5" y="1274.5732">ConsumePreloginHandshakeAsync()</text><line style="stroke:#181818;stroke-width:1.0;" x1="504.5" x2="514.5" y1="1322.7813" y2="1318.7813"/><line style="stroke:#181818;stroke-width:1.0;" x1="504.5" x2="514.5" y1="1322.7813" y2="1326.7813"/><line style="stroke:#181818;stroke-width:1.0;" x1="503.5" x2="718.5" y1="1322.7813" y2="1322.7813"/><text fill="#000000" font-family="sans-serif" font-size="13" lengthAdjust="spacing" textLength="192" x="520.5" y="1317.9248">"established prelogin handshake"</text><line style="stroke:#181818;stroke-width:1.0;" x1="503.5" x2="545.5" y1="1353.1328" y2="1353.1328"/><line style="stroke:#181818;stroke-width:1.0;" x1="545.5" x2="545.5" y1="1353.1328" y2="1366.1328"/><line style="stroke:#181818;stroke-width:1.0;" x1="504.5" x2="545.5" y1="1366.1328" y2="1366.1328"/><line style="stroke:#181818;stroke-width:1.0;" x1="504.5" x2="514.5" y1="1366.1328" y2="1362.1328"/><line style="stroke:#181818;stroke-width:1.0;" x1="504.5" x2="514.5" y1="1366.1328" y2="1370.1328"/><text fill="#000000" font-family="sans-serif" font-size="13" lengthAdjust="spacing" textLength="39" x="510.5" y="1348.2764">Login()</text><line style="stroke:#181818;stroke-width:1.0;" x1="503.5" x2="545.5" y1="1396.4844" y2="1396.4844"/><line style="stroke:#181818;stroke-width:1.0;" x1="545.5" x2="545.5" y1="1396.4844" y2="1409.4844"/><line style="stroke:#181818;stroke-width:1.0;" x1="504.5" x2="545.5" y1="1409.4844" y2="1409.4844"/><line style="stroke:#181818;stroke-width:1.0;" x1="504.5" x2="514.5" y1="1409.4844" y2="1405.4844"/><line style="stroke:#181818;stroke-width:1.0;" x1="504.5" x2="514.5" y1="1409.4844" y2="1413.4844"/><text fill="#000000" font-family="sans-serif" font-size="13" lengthAdjust="spacing" textLength="94" x="510.5" y="1391.6279">CompleteLogin()</text><line style="stroke:#181818;stroke-width:1.0;" x1="503.5" x2="545.5" y1="1439.8359" y2="1439.8359"/><line style="stroke:#181818;stroke-width:1.0;" x1="545.5" x2="545.5" y1="1439.8359" y2="1452.8359"/><line style="stroke:#181818;stroke-width:1.0;" x1="504.5" x2="545.5" y1="1452.8359" y2="1452.8359"/><line style="stroke:#181818;stroke-width:1.0;" x1="504.5" x2="514.5" y1="1452.8359" y2="1448.8359"/><line style="stroke:#181818;stroke-width:1.0;" x1="504.5" x2="514.5" y1="1452.8359" y2="1456.8359"/><text fill="#000000" font-family="sans-serif" font-size="13" lengthAdjust="spacing" textLength="97" x="510.5" y="1434.9795">"Retry if needed"</text><line style="stroke:#181818;stroke-width:1.0;" x1="198.5" x2="208.5" y1="1483.1875" y2="1479.1875"/><line style="stroke:#181818;stroke-width:1.0;" x1="198.5" x2="208.5" y1="1483.1875" y2="1487.1875"/><line style="stroke:#181818;stroke-width:1.0;" x1="197.5" x2="502.5" y1="1483.1875" y2="1483.1875"/><text fill="#000000" font-family="sans-serif" font-size="13" lengthAdjust="spacing" textLength="189" x="214.5" y="1478.3311">"SqlInternalConnection instance"</text><line style="stroke:#181818;stroke-width:1.0;" x1="27.5" x2="37.5" y1="1513.5391" y2="1509.5391"/><line style="stroke:#181818;stroke-width:1.0;" x1="27.5" x2="37.5" y1="1513.5391" y2="1517.5391"/><line style="stroke:#181818;stroke-width:1.0;" x1="26.5" x2="196.5" y1="1513.5391" y2="1513.5391"/><text fill="#000000" font-family="sans-serif" font-size="13" lengthAdjust="spacing" textLength="147" x="43.5" y="1508.6826">"SqlConnection instance"</text><!--SRC=[jPV1Zjem48RlF8MLNbfLvG7G2eaksoxIBXkHebQgUZ39b5WuJh27tTAdhvq44YS14a9zWTZ-lndROtkC33aGnzloUyv0u0_YmNO7mWSoPNGjQUGC1WcLo7oMK874MIgG3g6AxFGVkybGOY70HnQBj8_QSlzOK-iy4mXIq0OHorkCs9PDLqNlPoheElScM9c-KLPZIvxYDHEFL0GyxyjDHPXLs5qdEmprB32V6huhurSMv2AgcvAymXRD0TzYkLaYusbFaNtlz3UvkoEwcOp7jkIRdpo3KY0ExgEVH8UAKo9lhn2YeMuQJeLAPNOLUVV4rY7UnvBoar8lzZU0QhWCacp9Kz3ngnCZ-yqyIVzQwe694F9fFBR3W8p8Im9YelR2V_zXG7Insut2Mawj-0fOh7jPQehTkKbk3APXy20uKrW5j8EaWEyCmo-KyVWLP1Ec7Mg2UYeJV16GGa-1cc7byDMiV5xECKonL4qO2HJ1yzoP1YBymKFqds6svxhXNkbTnOzHVydTa_ZoxXeHXNgd-hcHpd1JohmB_8a8J22LDsyNIvUjwIXtOucVzpEX3Uj3U4uZw41lib0v8b8ZZx7U0q4WpIXKro6OKe7MHp9pSpxv-QkN-pRM0n4if-x2t54AEphTX2_ElGn-pMIOKd2gr0Num5xXDc1xDXQWabYelX5IYq5zDNiWzG7dkNDrhUDju_11eDnVQwH571vjt72E1BoHyYdGSm6ioxz-EtOf5gg1NKcvhZNJnjGDJ3IQ-Iy7seMWgixYjQVR-O5bATJDPYxdDVZlvDaM14HbAToWb-Vsxd1OVdkHZwGmvBKqLDqSbNJ2AImVp3ZjSvvo4f_k1eQCSlONUYHEvjfm9V33AqE5T0Ezip5zhkyYwCIjCQjPfwFlJBhI2N2eroF9qIGyi9sM-MTZNjmwUwsgx-CeuO3GZ-8iG1_nXFtMyGC11DbOwhhgIwJv6LeAhVhJ97tLZ2gltKBn3m00]--></g></svg>