<?xml version="1.0" encoding="us-ascii" standalone="no"?><svg xmlns="http://www.w3.org/2000/svg" xmlns:xlink="http://www.w3.org/1999/xlink" contentStyleType="text/css" height="1395px" preserveAspectRatio="none" style="width:3389px;height:1395px;background:#FFFFFF;" version="1.1" viewBox="0 0 3389 1395" width="3389px" zoomAndPan="magnify"><defs/><g><text fill="#000000" font-family="sans-serif" font-size="14" font-weight="bold" lengthAdjust="spacing" textLength="268" x="1553.5" y="24.5332">Proposed class diagram for SqlClientX</text><!--cluster System--><g id="cluster_System"><path d="M2390.5,44.6094 L2441.5,44.6094 A3.75,3.75 0 0 1 2444,47.1094 L2451,68.2188 L3339.5,68.2188 A2.5,2.5 0 0 1 3342,70.7188 L3342,492.1094 A2.5,2.5 0 0 1 3339.5,494.6094 L2390.5,494.6094 A2.5,2.5 0 0 1 2388,492.1094 L2388,47.1094 A2.5,2.5 0 0 1 2390.5,44.6094 " fill="none" style="stroke:#000000;stroke-width:1.5;"/><line style="stroke:#000000;stroke-width:1.5;" x1="2388" x2="2451" y1="68.2188" y2="68.2188"/><text fill="#000000" font-family="sans-serif" font-size="14" font-weight="bold" lengthAdjust="spacing" textLength="50" x="2392" y="61.1426">System</text></g><!--cluster Net--><g id="cluster_Net"><path d="M2846.5,150.6094 L2871.5,150.6094 A3.75,3.75 0 0 1 2874,153.1094 L2881,174.2188 L3315.5,174.2188 A2.5,2.5 0 0 1 3318,176.7188 L3318,386.1094 A2.5,2.5 0 0 1 3315.5,388.6094 L2846.5,388.6094 A2.5,2.5 0 0 1 2844,386.1094 L2844,153.1094 A2.5,2.5 0 0 1 2846.5,150.6094 " fill="none" style="stroke:#000000;stroke-width:1.5;"/><line style="stroke:#000000;stroke-width:1.5;" x1="2844" x2="2881" y1="174.2188" y2="174.2188"/><text fill="#000000" font-family="sans-serif" font-size="14" font-weight="bold" lengthAdjust="spacing" textLength="24" x="2848" y="167.1426">Net</text></g><!--cluster Sockets--><g id="cluster_Sockets"><path d="M2870.5,194.6094 L2927.5,194.6094 A3.75,3.75 0 0 1 2930,197.1094 L2937,218.2188 L3291.5,218.2188 A2.5,2.5 0 0 1 3294,220.7188 L3294,362.1094 A2.5,2.5 0 0 1 3291.5,364.6094 L2870.5,364.6094 A2.5,2.5 0 0 1 2868,362.1094 L2868,197.1094 A2.5,2.5 0 0 1 2870.5,194.6094 " fill="none" style="stroke:#000000;stroke-width:1.5;"/><line style="stroke:#000000;stroke-width:1.5;" x1="2868" x2="2937" y1="218.2188" y2="218.2188"/><text fill="#000000" font-family="sans-serif" font-size="14" font-weight="bold" lengthAdjust="spacing" textLength="56" x="2872" y="211.1426">Sockets</text></g><!--cluster IO--><g id="cluster_IO"><path d="M2414.5,88.6094 L2430.5,88.6094 A3.75,3.75 0 0 1 2433,91.1094 L2440,112.2188 L2817.5,112.2188 A2.5,2.5 0 0 1 2820,114.7188 L2820,468.1094 A2.5,2.5 0 0 1 2817.5,470.6094 L2414.5,470.6094 A2.5,2.5 0 0 1 2412,468.1094 L2412,91.1094 A2.5,2.5 0 0 1 2414.5,88.6094 " fill="none" style="stroke:#000000;stroke-width:1.5;"/><line style="stroke:#000000;stroke-width:1.5;" x1="2412" x2="2440" y1="112.2188" y2="112.2188"/><text fill="#000000" font-family="sans-serif" font-size="14" font-weight="bold" lengthAdjust="spacing" textLength="15" x="2416" y="105.1426">IO</text></g><!--cluster Microsoft--><g id="cluster_Microsoft"><path d="M8.5,518.6094 L76.5,518.6094 A3.75,3.75 0 0 1 79,521.1094 L86,542.2188 L3379.5,542.2188 A2.5,2.5 0 0 1 3382,544.7188 L3382,1386.1094 A2.5,2.5 0 0 1 3379.5,1388.6094 L8.5,1388.6094 A2.5,2.5 0 0 1 6,1386.1094 L6,521.1094 A2.5,2.5 0 0 1 8.5,518.6094 " fill="none" style="stroke:#000000;stroke-width:1.5;"/><line style="stroke:#000000;stroke-width:1.5;" x1="6" x2="86" y1="542.2188" y2="542.2188"/><text fill="#000000" font-family="sans-serif" font-size="14" font-weight="bold" lengthAdjust="spacing" textLength="67" x="10" y="535.1426">Microsoft</text></g><!--cluster Data--><g id="cluster_Data"><path d="M32.5,562.6094 L64.5,562.6094 A3.75,3.75 0 0 1 67,565.1094 L74,586.2188 L3355.5,586.2188 A2.5,2.5 0 0 1 3358,588.7188 L3358,1362.1094 A2.5,2.5 0 0 1 3355.5,1364.6094 L32.5,1364.6094 A2.5,2.5 0 0 1 30,1362.1094 L30,565.1094 A2.5,2.5 0 0 1 32.5,562.6094 " fill="none" style="stroke:#000000;stroke-width:1.5;"/><line style="stroke:#000000;stroke-width:1.5;" x1="30" x2="74" y1="586.2188" y2="586.2188"/><text fill="#000000" font-family="sans-serif" font-size="14" font-weight="bold" lengthAdjust="spacing" textLength="31" x="34" y="579.1426">Data</text></g><!--cluster SqlClientX--><g id="cluster_SqlClientX"><path d="M56.5,606.6094 L129.5,606.6094 A3.75,3.75 0 0 1 132,609.1094 L139,630.2188 L3331.5,630.2188 A2.5,2.5 0 0 1 3334,632.7188 L3334,1338.1094 A2.5,2.5 0 0 1 3331.5,1340.6094 L56.5,1340.6094 A2.5,2.5 0 0 1 54,1338.1094 L54,609.1094 A2.5,2.5 0 0 1 56.5,606.6094 " fill="none" style="stroke:#000000;stroke-width:1.5;"/><line style="stroke:#000000;stroke-width:1.5;" x1="54" x2="139" y1="630.2188" y2="630.2188"/><text fill="#000000" font-family="sans-serif" font-size="14" font-weight="bold" lengthAdjust="spacing" textLength="72" x="58" y="623.1426">SqlClientX</text></g><!--cluster Net--><g id="cluster_Net"><path d="M1710.5,650.6094 L1735.5,650.6094 A3.75,3.75 0 0 1 1738,653.1094 L1745,674.2188 L3307.5,674.2188 A2.5,2.5 0 0 1 3310,676.7188 L3310,1314.1094 A2.5,2.5 0 0 1 3307.5,1316.6094 L1710.5,1316.6094 A2.5,2.5 0 0 1 1708,1314.1094 L1708,653.1094 A2.5,2.5 0 0 1 1710.5,650.6094 " fill="none" style="stroke:#000000;stroke-width:1.5;"/><line style="stroke:#000000;stroke-width:1.5;" x1="1708" x2="1745" y1="674.2188" y2="674.2188"/><text fill="#000000" font-family="sans-serif" font-size="14" font-weight="bold" lengthAdjust="spacing" textLength="24" x="1712" y="667.1426">Net</text></g><!--cluster Streams--><g id="cluster_Streams"><path d="M2618.5,730.1094 L2676.5,730.1094 A3.75,3.75 0 0 1 2679,732.6094 L2686,753.7188 L3283.5,753.7188 A2.5,2.5 0 0 1 3286,756.2188 L3286,862.6094 A2.5,2.5 0 0 1 3283.5,865.1094 L2618.5,865.1094 A2.5,2.5 0 0 1 2616,862.6094 L2616,732.6094 A2.5,2.5 0 0 1 2618.5,730.1094 " fill="none" style="stroke:#000000;stroke-width:1.5;"/><line style="stroke:#000000;stroke-width:1.5;" x1="2616" x2="2686" y1="753.7188" y2="753.7188"/><text fill="#000000" font-family="sans-serif" font-size="14" font-weight="bold" lengthAdjust="spacing" textLength="57" x="2620" y="746.6426">Streams</text></g><!--cluster TDS--><g id="cluster_TDS"><path d="M80.5,686.1094 L108.5,686.1094 A3.75,3.75 0 0 1 111,688.6094 L118,709.7188 L1681.5,709.7188 A2.5,2.5 0 0 1 1684,712.2188 L1684,1206.1094 A2.5,2.5 0 0 1 1681.5,1208.6094 L80.5,1208.6094 A2.5,2.5 0 0 1 78,1206.1094 L78,688.6094 A2.5,2.5 0 0 1 80.5,686.1094 " fill="none" style="stroke:#000000;stroke-width:1.5;"/><line style="stroke:#000000;stroke-width:1.5;" x1="78" x2="118" y1="709.7188" y2="709.7188"/><text fill="#000000" font-family="sans-serif" font-size="14" font-weight="bold" lengthAdjust="spacing" textLength="27" x="82" y="702.6426">TDS</text></g><!--cluster Handlers--><g id="cluster_Handlers"><path d="M286.5,730.1094 L350.5,730.1094 A3.75,3.75 0 0 1 353,732.6094 L360,753.7188 L1657.5,753.7188 A2.5,2.5 0 0 1 1660,756.2188 L1660,1182.1094 A2.5,2.5 0 0 1 1657.5,1184.6094 L286.5,1184.6094 A2.5,2.5 0 0 1 284,1182.1094 L284,732.6094 A2.5,2.5 0 0 1 286.5,730.1094 " fill="none" style="stroke:#000000;stroke-width:1.5;"/><line style="stroke:#000000;stroke-width:1.5;" x1="284" x2="360" y1="753.7188" y2="753.7188"/><text fill="#000000" font-family="sans-serif" font-size="14" font-weight="bold" lengthAdjust="spacing" textLength="63" x="288" y="746.6426">Handlers</text></g><!--class NetworkStream--><g id="elem_NetworkStream"><rect codeLine="3" fill="#F1F1F1" height="118.4375" id="NetworkStream" rx="2.5" ry="2.5" style="stroke:#181818;stroke-width:0.5;" width="179" x="3098.5" y="230.6094"/><ellipse cx="3136.9" cy="246.6094" fill="#ADD1B2" rx="11" ry="11" style="stroke:#181818;stroke-width:1.0;"/><path d="M3139.6656,242.4844 Q3139.8219,242.2656 3140.0094,242.1563 Q3140.1969,242.0469 3140.4156,242.0469 Q3140.7906,242.0469 3141.025,242.3125 Q3141.2594,242.5625 3141.2594,243.1719 L3141.2594,244.625 Q3141.2594,245.2344 3141.025,245.5 Q3140.7906,245.7656 3140.4156,245.7656 Q3140.0719,245.7656 3139.8688,245.5625 Q3139.6656,245.375 3139.5563,244.8594 Q3139.5094,244.5 3139.3219,244.3125 Q3138.9938,243.9375 3138.3844,243.7188 Q3137.775,243.5 3137.15,243.5 Q3136.3844,243.5 3135.7438,243.8281 Q3135.1188,244.1563 3134.6188,244.9063 Q3134.1344,245.6563 3134.1344,246.6875 L3134.1344,247.7813 Q3134.1344,249.0156 3135.025,249.8438 Q3135.9156,250.6563 3137.5094,250.6563 Q3138.4469,250.6563 3139.1031,250.4063 Q3139.4938,250.25 3139.9156,249.8125 Q3140.1813,249.5469 3140.3219,249.4688 Q3140.4781,249.3906 3140.6813,249.3906 Q3141.0094,249.3906 3141.2594,249.6563 Q3141.525,249.9063 3141.525,250.25 Q3141.525,250.5938 3141.1813,251 Q3140.6813,251.5781 3139.8844,251.9063 Q3138.8063,252.3594 3137.5094,252.3594 Q3135.9938,252.3594 3134.7906,251.7344 Q3133.8063,251.2344 3133.1188,250.1719 Q3132.4313,249.0938 3132.4313,247.8125 L3132.4313,246.6563 Q3132.4313,245.3281 3133.0406,244.1875 Q3133.6656,243.0313 3134.7594,242.4219 Q3135.8531,241.7969 3137.0875,241.7969 Q3137.8219,241.7969 3138.4625,241.9688 Q3139.1188,242.125 3139.6656,242.4844 Z " fill="#000000"/><text fill="#000000" font-family="sans-serif" font-size="14" lengthAdjust="spacing" textLength="95" x="3156.1" y="252.3379">NetworkStream</text><line style="stroke:#181818;stroke-width:0.5;" x1="3099.5" x2="3276.5" y1="262.6094" y2="262.6094"/><line style="stroke:#181818;stroke-width:0.5;" x1="3099.5" x2="3276.5" y1="270.6094" y2="270.6094"/><ellipse cx="3109.5" cy="284.9141" fill="#84BE84" rx="3" ry="3" style="stroke:#038048;stroke-width:1.0;"/><text fill="#000000" font-family="sans-serif" font-size="14" lengthAdjust="spacing" textLength="153" x="3118.5" y="289.1426">ValueTask ReadAsync()</text><ellipse cx="3109.5" cy="302.5234" fill="#84BE84" rx="3" ry="3" style="stroke:#038048;stroke-width:1.0;"/><text fill="#000000" font-family="sans-serif" font-size="14" lengthAdjust="spacing" textLength="117" x="3118.5" y="306.752">Task ReadAsync()</text><ellipse cx="3109.5" cy="320.1328" fill="#84BE84" rx="3" ry="3" style="stroke:#038048;stroke-width:1.0;"/><text fill="#000000" font-family="sans-serif" font-size="14" lengthAdjust="spacing" textLength="152" x="3118.5" y="324.3613">ValueTask WriteAsync()</text><ellipse cx="3109.5" cy="337.7422" fill="#84BE84" rx="3" ry="3" style="stroke:#038048;stroke-width:1.0;"/><text fill="#000000" font-family="sans-serif" font-size="14" lengthAdjust="spacing" textLength="116" x="3118.5" y="341.9707">Task WriteAsync()</text></g><!--class SslStream--><g id="elem_SslStream"><rect codeLine="9" fill="#F1F1F1" height="118.4375" id="SslStream" rx="2.5" ry="2.5" style="stroke:#181818;stroke-width:0.5;" width="179" x="2884.5" y="230.6094"/><ellipse cx="2937.75" cy="246.6094" fill="#ADD1B2" rx="11" ry="11" style="stroke:#181818;stroke-width:1.0;"/><path d="M2940.5156,242.4844 Q2940.6719,242.2656 2940.8594,242.1563 Q2941.0469,242.0469 2941.2656,242.0469 Q2941.6406,242.0469 2941.875,242.3125 Q2942.1094,242.5625 2942.1094,243.1719 L2942.1094,244.625 Q2942.1094,245.2344 2941.875,245.5 Q2941.6406,245.7656 2941.2656,245.7656 Q2940.9219,245.7656 2940.7188,245.5625 Q2940.5156,245.375 2940.4063,244.8594 Q2940.3594,244.5 2940.1719,244.3125 Q2939.8438,243.9375 2939.2344,243.7188 Q2938.625,243.5 2938,243.5 Q2937.2344,243.5 2936.5938,243.8281 Q2935.9688,244.1563 2935.4688,244.9063 Q2934.9844,245.6563 2934.9844,246.6875 L2934.9844,247.7813 Q2934.9844,249.0156 2935.875,249.8438 Q2936.7656,250.6563 2938.3594,250.6563 Q2939.2969,250.6563 2939.9531,250.4063 Q2940.3438,250.25 2940.7656,249.8125 Q2941.0313,249.5469 2941.1719,249.4688 Q2941.3281,249.3906 2941.5313,249.3906 Q2941.8594,249.3906 2942.1094,249.6563 Q2942.375,249.9063 2942.375,250.25 Q2942.375,250.5938 2942.0313,251 Q2941.5313,251.5781 2940.7344,251.9063 Q2939.6563,252.3594 2938.3594,252.3594 Q2936.8438,252.3594 2935.6406,251.7344 Q2934.6563,251.2344 2933.9688,250.1719 Q2933.2813,249.0938 2933.2813,247.8125 L2933.2813,246.6563 Q2933.2813,245.3281 2933.8906,244.1875 Q2934.5156,243.0313 2935.6094,242.4219 Q2936.7031,241.7969 2937.9375,241.7969 Q2938.6719,241.7969 2939.3125,241.9688 Q2939.9688,242.125 2940.5156,242.4844 Z " fill="#000000"/><text fill="#000000" font-family="sans-serif" font-size="14" lengthAdjust="spacing" textLength="64" x="2958.25" y="252.3379">SslStream</text><line style="stroke:#181818;stroke-width:0.5;" x1="2885.5" x2="3062.5" y1="262.6094" y2="262.6094"/><line style="stroke:#181818;stroke-width:0.5;" x1="2885.5" x2="3062.5" y1="270.6094" y2="270.6094"/><ellipse cx="2895.5" cy="284.9141" fill="#84BE84" rx="3" ry="3" style="stroke:#038048;stroke-width:1.0;"/><text fill="#000000" font-family="sans-serif" font-size="14" lengthAdjust="spacing" textLength="153" x="2904.5" y="289.1426">ValueTask ReadAsync()</text><ellipse cx="2895.5" cy="302.5234" fill="#84BE84" rx="3" ry="3" style="stroke:#038048;stroke-width:1.0;"/><text fill="#000000" font-family="sans-serif" font-size="14" lengthAdjust="spacing" textLength="117" x="2904.5" y="306.752">Task ReadAsync()</text><ellipse cx="2895.5" cy="320.1328" fill="#84BE84" rx="3" ry="3" style="stroke:#038048;stroke-width:1.0;"/><text fill="#000000" font-family="sans-serif" font-size="14" lengthAdjust="spacing" textLength="152" x="2904.5" y="324.3613">ValueTask WriteAsync()</text><ellipse cx="2895.5" cy="337.7422" fill="#84BE84" rx="3" ry="3" style="stroke:#038048;stroke-width:1.0;"/><text fill="#000000" font-family="sans-serif" font-size="14" lengthAdjust="spacing" textLength="116" x="2904.5" y="341.9707">Task WriteAsync()</text></g><!--class Stream--><g id="elem_Stream"><rect codeLine="15" fill="#F1F1F1" height="329.75" id="Stream" rx="2.5" ry="2.5" style="stroke:#181818;stroke-width:0.5;" width="375" x="2428.5" y="124.6094"/><ellipse cx="2589.25" cy="140.6094" fill="#ADD1B2" rx="11" ry="11" style="stroke:#181818;stroke-width:1.0;"/><path d="M2592.0156,136.4844 Q2592.1719,136.2656 2592.3594,136.1563 Q2592.5469,136.0469 2592.7656,136.0469 Q2593.1406,136.0469 2593.375,136.3125 Q2593.6094,136.5625 2593.6094,137.1719 L2593.6094,138.625 Q2593.6094,139.2344 2593.375,139.5 Q2593.1406,139.7656 2592.7656,139.7656 Q2592.4219,139.7656 2592.2188,139.5625 Q2592.0156,139.375 2591.9063,138.8594 Q2591.8594,138.5 2591.6719,138.3125 Q2591.3438,137.9375 2590.7344,137.7188 Q2590.125,137.5 2589.5,137.5 Q2588.7344,137.5 2588.0938,137.8281 Q2587.4688,138.1563 2586.9688,138.9063 Q2586.4844,139.6563 2586.4844,140.6875 L2586.4844,141.7813 Q2586.4844,143.0156 2587.375,143.8438 Q2588.2656,144.6563 2589.8594,144.6563 Q2590.7969,144.6563 2591.4531,144.4063 Q2591.8438,144.25 2592.2656,143.8125 Q2592.5313,143.5469 2592.6719,143.4688 Q2592.8281,143.3906 2593.0313,143.3906 Q2593.3594,143.3906 2593.6094,143.6563 Q2593.875,143.9063 2593.875,144.25 Q2593.875,144.5938 2593.5313,145 Q2593.0313,145.5781 2592.2344,145.9063 Q2591.1563,146.3594 2589.8594,146.3594 Q2588.3438,146.3594 2587.1406,145.7344 Q2586.1563,145.2344 2585.4688,144.1719 Q2584.7813,143.0938 2584.7813,141.8125 L2584.7813,140.6563 Q2584.7813,139.3281 2585.3906,138.1875 Q2586.0156,137.0313 2587.1094,136.4219 Q2588.2031,135.7969 2589.4375,135.7969 Q2590.1719,135.7969 2590.8125,135.9688 Q2591.4688,136.125 2592.0156,136.4844 Z " fill="#000000"/><text fill="#000000" font-family="sans-serif" font-size="14" lengthAdjust="spacing" textLength="45" x="2609.75" y="146.3379">Stream</text><line style="stroke:#181818;stroke-width:0.5;" x1="2429.5" x2="2802.5" y1="156.6094" y2="156.6094"/><ellipse cx="2439.5" cy="170.9141" fill="none" rx="3" ry="3" style="stroke:#038048;stroke-width:1.0;"/><text fill="#000000" font-family="sans-serif" font-size="14" lengthAdjust="spacing" textLength="50" x="2448.5" y="175.1426">Position</text><ellipse cx="2439.5" cy="188.5234" fill="none" rx="3" ry="3" style="stroke:#038048;stroke-width:1.0;"/><text fill="#000000" font-family="sans-serif" font-size="14" lengthAdjust="spacing" textLength="60" x="2448.5" y="192.752">CanRead</text><ellipse cx="2439.5" cy="206.1328" fill="none" rx="3" ry="3" style="stroke:#038048;stroke-width:1.0;"/><text fill="#000000" font-family="sans-serif" font-size="14" lengthAdjust="spacing" textLength="59" x="2448.5" y="210.3613">CanWrite</text><ellipse cx="2439.5" cy="223.7422" fill="none" rx="3" ry="3" style="stroke:#038048;stroke-width:1.0;"/><text fill="#000000" font-family="sans-serif" font-size="14" lengthAdjust="spacing" textLength="58" x="2448.5" y="227.9707">CanSeek</text><line style="stroke:#181818;stroke-width:0.5;" x1="2429.5" x2="2802.5" y1="235.0469" y2="235.0469"/><ellipse cx="2439.5" cy="249.3516" fill="#84BE84" rx="3" ry="3" style="stroke:#038048;stroke-width:1.0;"/><text fill="#000000" font-family="sans-serif" font-size="14" lengthAdjust="spacing" textLength="119" x="2448.5" y="253.5801">FinishHandshake()</text><ellipse cx="2439.5" cy="266.9609" fill="#84BE84" rx="3" ry="3" style="stroke:#038048;stroke-width:1.0;"/><text fill="#000000" font-family="sans-serif" font-size="14" lengthAdjust="spacing" textLength="75" x="2448.5" y="271.1895">SetLength()</text><ellipse cx="2439.5" cy="284.5703" fill="#84BE84" rx="3" ry="3" style="stroke:#038048;stroke-width:1.0;"/><text fill="#000000" font-family="sans-serif" font-size="14" lengthAdjust="spacing" textLength="45" x="2448.5" y="288.7988">Flush()</text><ellipse cx="2439.5" cy="302.1797" fill="#84BE84" rx="3" ry="3" style="stroke:#038048;stroke-width:1.0;"/><text fill="#000000" font-family="sans-serif" font-size="14" lengthAdjust="spacing" textLength="42" x="2448.5" y="306.4082">Seek()</text><ellipse cx="2439.5" cy="319.7891" fill="#84BE84" rx="3" ry="3" style="stroke:#038048;stroke-width:1.0;"/><text fill="#000000" font-family="sans-serif" font-size="14" lengthAdjust="spacing" textLength="150" x="2448.5" y="324.0176">void Read(byte[] buffer)</text><ellipse cx="2439.5" cy="337.3984" fill="#84BE84" rx="3" ry="3" style="stroke:#038048;stroke-width:1.0;"/><text fill="#000000" font-family="sans-serif" font-size="14" lengthAdjust="spacing" textLength="193" x="2448.5" y="341.627">Task ReadAsync(byte[] buffer)</text><ellipse cx="2439.5" cy="355.0078" fill="#84BE84" rx="3" ry="3" style="stroke:#038048;stroke-width:1.0;"/><text fill="#000000" font-family="sans-serif" font-size="14" lengthAdjust="spacing" textLength="126" x="2448.5" y="359.2363">Read(Span&gt; buffer)</text><ellipse cx="2439.5" cy="372.6172" fill="#84BE84" rx="3" ry="3" style="stroke:#038048;stroke-width:1.0;"/><text fill="#000000" font-family="sans-serif" font-size="14" lengthAdjust="spacing" textLength="287" x="2448.5" y="376.8457">ValueTask ReadAsync(Memory&lt;byte&gt; buffer)</text><ellipse cx="2439.5" cy="390.2266" fill="#84BE84" rx="3" ry="3" style="stroke:#038048;stroke-width:1.0;"/><text fill="#000000" font-family="sans-serif" font-size="14" lengthAdjust="spacing" textLength="119" x="2448.5" y="394.4551">Write(byte[] buffer)</text><ellipse cx="2439.5" cy="407.8359" fill="#84BE84" rx="3" ry="3" style="stroke:#038048;stroke-width:1.0;"/><text fill="#000000" font-family="sans-serif" font-size="14" lengthAdjust="spacing" textLength="192" x="2448.5" y="412.0645">Task WriteAsync(byte[] buffer)</text><ellipse cx="2439.5" cy="425.4453" fill="#84BE84" rx="3" ry="3" style="stroke:#038048;stroke-width:1.0;"/><text fill="#000000" font-family="sans-serif" font-size="14" lengthAdjust="spacing" textLength="223" x="2448.5" y="429.6738">Write(ReadOnlySpan&lt;byte&gt; buffer)</text><ellipse cx="2439.5" cy="443.0547" fill="#84BE84" rx="3" ry="3" style="stroke:#038048;stroke-width:1.0;"/><text fill="#000000" font-family="sans-serif" font-size="14" lengthAdjust="spacing" textLength="349" x="2448.5" y="447.2832">ValueTask WriteAsync(ReadOnlyMemory&lt;byte&gt; buffer)</text></g><!--class MessengerResponse--><g id="elem_MessengerResponse"><rect codeLine="36" fill="#F1F1F1" height="83.2188" id="MessengerResponse" rx="2.5" ry="2.5" style="stroke:#181818;stroke-width:0.5;" width="166" x="1999" y="766.1094"/><ellipse cx="2014" cy="782.1094" fill="#ADD1B2" rx="11" ry="11" style="stroke:#181818;stroke-width:1.0;"/><path d="M2016.7656,777.9844 Q2016.9219,777.7656 2017.1094,777.6563 Q2017.2969,777.5469 2017.5156,777.5469 Q2017.8906,777.5469 2018.125,777.8125 Q2018.3594,778.0625 2018.3594,778.6719 L2018.3594,780.125 Q2018.3594,780.7344 2018.125,781 Q2017.8906,781.2656 2017.5156,781.2656 Q2017.1719,781.2656 2016.9688,781.0625 Q2016.7656,780.875 2016.6563,780.3594 Q2016.6094,780 2016.4219,779.8125 Q2016.0938,779.4375 2015.4844,779.2188 Q2014.875,779 2014.25,779 Q2013.4844,779 2012.8438,779.3281 Q2012.2188,779.6563 2011.7188,780.4063 Q2011.2344,781.1563 2011.2344,782.1875 L2011.2344,783.2813 Q2011.2344,784.5156 2012.125,785.3438 Q2013.0156,786.1563 2014.6094,786.1563 Q2015.5469,786.1563 2016.2031,785.9063 Q2016.5938,785.75 2017.0156,785.3125 Q2017.2813,785.0469 2017.4219,784.9688 Q2017.5781,784.8906 2017.7813,784.8906 Q2018.1094,784.8906 2018.3594,785.1563 Q2018.625,785.4063 2018.625,785.75 Q2018.625,786.0938 2018.2813,786.5 Q2017.7813,787.0781 2016.9844,787.4063 Q2015.9063,787.8594 2014.6094,787.8594 Q2013.0938,787.8594 2011.8906,787.2344 Q2010.9063,786.7344 2010.2188,785.6719 Q2009.5313,784.5938 2009.5313,783.3125 L2009.5313,782.1563 Q2009.5313,780.8281 2010.1406,779.6875 Q2010.7656,778.5313 2011.8594,777.9219 Q2012.9531,777.2969 2014.1875,777.2969 Q2014.9219,777.2969 2015.5625,777.4688 Q2016.2188,777.625 2016.7656,777.9844 Z " fill="#000000"/><text fill="#000000" font-family="sans-serif" font-size="14" lengthAdjust="spacing" textLength="134" x="2028" y="787.8379">MessengerResponse</text><line style="stroke:#181818;stroke-width:0.5;" x1="2000" x2="2164" y1="798.1094" y2="798.1094"/><ellipse cx="2010" cy="812.4141" fill="none" rx="3" ry="3" style="stroke:#038048;stroke-width:1.0;"/><text fill="#000000" font-family="sans-serif" font-size="14" lengthAdjust="spacing" textLength="96" x="2019" y="816.6426">Socket _socket</text><ellipse cx="2010" cy="830.0234" fill="none" rx="3" ry="3" style="stroke:#038048;stroke-width:1.0;"/><text fill="#000000" font-family="sans-serif" font-size="14" lengthAdjust="spacing" textLength="128" x="2019" y="834.252">bool _reportOnError</text><line style="stroke:#181818;stroke-width:0.5;" x1="2000" x2="2164" y1="841.3281" y2="841.3281"/></g><!--class Messenger--><g id="elem_Messenger"><rect codeLine="40" fill="#F1F1F1" height="241.7031" id="Messenger" rx="2.5" ry="2.5" style="stroke:#181818;stroke-width:0.5;" width="240" x="1724" y="686.6094"/><ellipse cx="1804.25" cy="702.6094" fill="#A9DCDF" rx="11" ry="11" style="stroke:#181818;stroke-width:1.0;"/><path d="M1806.4375,704.375 L1802.2969,704.375 L1801.875,705.4063 L1802.2969,705.4063 Q1802.9063,705.4063 1803.1719,705.6406 Q1803.4375,705.875 1803.4375,706.2656 Q1803.4375,706.6406 1803.1719,706.875 Q1802.9063,707.1094 1802.2969,707.1094 L1800,707.1094 Q1799.3906,707.1094 1799.1406,706.875 Q1798.875,706.6406 1798.875,706.25 Q1798.875,705.875 1799.1563,705.6406 Q1799.4219,705.3906 1800.0469,705.4063 L1802.7188,698.75 L1801.6094,698.75 Q1801,698.75 1800.7344,698.5156 Q1800.4688,698.2813 1800.4688,697.8906 Q1800.4688,697.5156 1800.7344,697.2813 Q1801,697.0469 1801.6094,697.0469 L1805.2813,697.0469 L1808.6719,705.4063 Q1809.2656,705.4063 1809.4531,705.5469 Q1809.8438,705.8125 1809.8438,706.2656 Q1809.8438,706.6406 1809.5781,706.875 Q1809.3281,707.1094 1808.7188,707.1094 L1806.4219,707.1094 Q1805.8125,707.1094 1805.5469,706.875 Q1805.2813,706.6406 1805.2813,706.25 Q1805.2813,705.875 1805.5469,705.6406 Q1805.8125,705.4063 1806.4219,705.4063 L1806.8438,705.4063 L1806.4375,704.375 Z M1805.7188,702.6719 L1804.3594,699.2969 L1802.9844,702.6719 L1805.7188,702.6719 Z " fill="#000000"/><text fill="#000000" font-family="sans-serif" font-size="14" font-style="italic" lengthAdjust="spacing" textLength="71" x="1824.75" y="708.3379">Messenger</text><line style="stroke:#181818;stroke-width:0.5;" x1="1725" x2="1963" y1="718.6094" y2="718.6094"/><ellipse cx="1735" cy="732.9141" fill="none" rx="3" ry="3" style="stroke:#038048;stroke-width:1.0;"/><text fill="#000000" font-family="sans-serif" font-size="14" lengthAdjust="spacing" textLength="119" x="1744" y="737.1426">int ProtocolVersion</text><line style="stroke:#181818;stroke-width:0.5;" x1="1725" x2="1963" y1="744.2188" y2="744.2188"/><ellipse cx="1735" cy="758.5234" fill="#84BE84" rx="3" ry="3" style="stroke:#038048;stroke-width:1.0;"/><text fill="#000000" font-family="sans-serif" font-size="14" lengthAdjust="spacing" textLength="170" x="1744" y="762.752">ValueTask DisposeAsync()</text><ellipse cx="1735" cy="776.1328" fill="#84BE84" rx="3" ry="3" style="stroke:#038048;stroke-width:1.0;"/><text fill="#000000" font-family="sans-serif" font-size="14" lengthAdjust="spacing" textLength="152" x="1744" y="780.3613">ValueTask SendAsync()</text><ellipse cx="1735" cy="793.7422" fill="#84BE84" rx="3" ry="3" style="stroke:#038048;stroke-width:1.0;"/><text fill="#000000" font-family="sans-serif" font-size="14" lengthAdjust="spacing" textLength="170" x="1744" y="797.9707">ValueTask ReceiveAsync()</text><ellipse cx="1735" cy="811.3516" fill="#84BE84" rx="3" ry="3" style="stroke:#038048;stroke-width:1.0;"/><text fill="#000000" font-family="sans-serif" font-size="14" lengthAdjust="spacing" textLength="182" x="1744" y="815.5801">ValueTask EnableSslAsync()</text><ellipse cx="1735" cy="828.9609" fill="#84BE84" rx="3" ry="3" style="stroke:#038048;stroke-width:1.0;"/><text fill="#000000" font-family="sans-serif" font-size="14" lengthAdjust="spacing" textLength="214" x="1744" y="833.1895">Task AuthenticateAsClientAsync()</text><ellipse cx="1735" cy="846.5703" fill="#84BE84" rx="3" ry="3" style="stroke:#038048;stroke-width:1.0;"/><text fill="#000000" font-family="sans-serif" font-size="14" lengthAdjust="spacing" textLength="149" x="1744" y="850.7988">Task DisableSslAsync()</text><ellipse cx="1735" cy="864.1797" fill="#84BE84" rx="3" ry="3" style="stroke:#038048;stroke-width:1.0;"/><text fill="#000000" font-family="sans-serif" font-size="14" lengthAdjust="spacing" textLength="122" x="1744" y="868.4082">CheckConnection()</text><ellipse cx="1735" cy="881.7891" fill="#84BE84" rx="3" ry="3" style="stroke:#038048;stroke-width:1.0;"/><text fill="#000000" font-family="sans-serif" font-size="14" lengthAdjust="spacing" textLength="100" x="1744" y="886.0176">KillConnection()</text><ellipse cx="1735" cy="899.3984" fill="#84BE84" rx="3" ry="3" style="stroke:#038048;stroke-width:1.0;"/><text fill="#000000" font-family="sans-serif" font-size="14" lengthAdjust="spacing" textLength="83" x="1744" y="903.627">RentPacket()</text><ellipse cx="1735" cy="917.0078" fill="#84BE84" rx="3" ry="3" style="stroke:#038048;stroke-width:1.0;"/><text fill="#000000" font-family="sans-serif" font-size="14" lengthAdjust="spacing" textLength="96" x="1744" y="921.2363">ReturnPacket()</text></g><!--class TcpMessenger--><g id="elem_TcpMessenger"><rect codeLine="53" fill="#F1F1F1" height="153.6563" id="TcpMessenger" rx="2.5" ry="2.5" style="stroke:#181818;stroke-width:0.5;" width="274" x="1724" y="1067.6094"/><ellipse cx="1809.75" cy="1083.6094" fill="#ADD1B2" rx="11" ry="11" style="stroke:#181818;stroke-width:1.0;"/><path d="M1812.5156,1079.4844 Q1812.6719,1079.2656 1812.8594,1079.1563 Q1813.0469,1079.0469 1813.2656,1079.0469 Q1813.6406,1079.0469 1813.875,1079.3125 Q1814.1094,1079.5625 1814.1094,1080.1719 L1814.1094,1081.625 Q1814.1094,1082.2344 1813.875,1082.5 Q1813.6406,1082.7656 1813.2656,1082.7656 Q1812.9219,1082.7656 1812.7188,1082.5625 Q1812.5156,1082.375 1812.4063,1081.8594 Q1812.3594,1081.5 1812.1719,1081.3125 Q1811.8438,1080.9375 1811.2344,1080.7188 Q1810.625,1080.5 1810,1080.5 Q1809.2344,1080.5 1808.5938,1080.8281 Q1807.9688,1081.1563 1807.4688,1081.9063 Q1806.9844,1082.6563 1806.9844,1083.6875 L1806.9844,1084.7813 Q1806.9844,1086.0156 1807.875,1086.8438 Q1808.7656,1087.6563 1810.3594,1087.6563 Q1811.2969,1087.6563 1811.9531,1087.4063 Q1812.3438,1087.25 1812.7656,1086.8125 Q1813.0313,1086.5469 1813.1719,1086.4688 Q1813.3281,1086.3906 1813.5313,1086.3906 Q1813.8594,1086.3906 1814.1094,1086.6563 Q1814.375,1086.9063 1814.375,1087.25 Q1814.375,1087.5938 1814.0313,1088 Q1813.5313,1088.5781 1812.7344,1088.9063 Q1811.6563,1089.3594 1810.3594,1089.3594 Q1808.8438,1089.3594 1807.6406,1088.7344 Q1806.6563,1088.2344 1805.9688,1087.1719 Q1805.2813,1086.0938 1805.2813,1084.8125 L1805.2813,1083.6563 Q1805.2813,1082.3281 1805.8906,1081.1875 Q1806.5156,1080.0313 1807.6094,1079.4219 Q1808.7031,1078.7969 1809.9375,1078.7969 Q1810.6719,1078.7969 1811.3125,1078.9688 Q1811.9688,1079.125 1812.5156,1079.4844 Z " fill="#000000"/><text fill="#000000" font-family="sans-serif" font-size="14" lengthAdjust="spacing" textLength="94" x="1830.25" y="1089.3379">TcpMessenger</text><line style="stroke:#181818;stroke-width:0.5;" x1="1725" x2="1997" y1="1099.6094" y2="1099.6094"/><rect fill="none" height="6" style="stroke:#C82930;stroke-width:1.0;" width="6" x="1732" y="1110.9141"/><text fill="#000000" font-family="sans-serif" font-size="14" lengthAdjust="spacing" textLength="96" x="1744" y="1118.1426">Socket _socket</text><rect fill="none" height="6" style="stroke:#C82930;stroke-width:1.0;" width="6" x="1732" y="1128.5234"/><text fill="#000000" font-family="sans-serif" font-size="14" lengthAdjust="spacing" textLength="100" x="1744" y="1135.752">Stream _stream</text><rect fill="none" height="6" style="stroke:#C82930;stroke-width:1.0;" width="6" x="1732" y="1146.1328"/><text fill="#000000" font-family="sans-serif" font-size="14" lengthAdjust="spacing" textLength="138" x="1744" y="1153.3613">SslStream _sslStream</text><rect fill="none" height="6" style="stroke:#C82930;stroke-width:1.0;" width="6" x="1732" y="1163.7422"/><text fill="#000000" font-family="sans-serif" font-size="14" lengthAdjust="spacing" textLength="171" x="1744" y="1170.9707">NetworkStream _tcpStream</text><rect fill="none" height="6" style="stroke:#C82930;stroke-width:1.0;" width="6" x="1732" y="1181.3516"/><text fill="#000000" font-family="sans-serif" font-size="14" lengthAdjust="spacing" textLength="248" x="1744" y="1188.5801">SslOverTdsStream _sslOverTdsStream</text><ellipse cx="1735" cy="1201.9609" fill="none" rx="3" ry="3" style="stroke:#038048;stroke-width:1.0;"/><text fill="#000000" font-family="sans-serif" font-size="14" lengthAdjust="spacing" textLength="67" x="1744" y="1206.1895">uint Status</text><line style="stroke:#181818;stroke-width:0.5;" x1="1725" x2="1997" y1="1213.2656" y2="1213.2656"/></g><!--class NpMessenger--><g id="elem_NpMessenger"><rect codeLine="61" fill="#F1F1F1" height="48" id="NpMessenger" rx="2.5" ry="2.5" style="stroke:#181818;stroke-width:0.5;" width="119" x="2033.5" y="1120.6094"/><ellipse cx="2048.5" cy="1136.6094" fill="#ADD1B2" rx="11" ry="11" style="stroke:#181818;stroke-width:1.0;"/><path d="M2051.2656,1132.4844 Q2051.4219,1132.2656 2051.6094,1132.1563 Q2051.7969,1132.0469 2052.0156,1132.0469 Q2052.3906,1132.0469 2052.625,1132.3125 Q2052.8594,1132.5625 2052.8594,1133.1719 L2052.8594,1134.625 Q2052.8594,1135.2344 2052.625,1135.5 Q2052.3906,1135.7656 2052.0156,1135.7656 Q2051.6719,1135.7656 2051.4688,1135.5625 Q2051.2656,1135.375 2051.1563,1134.8594 Q2051.1094,1134.5 2050.9219,1134.3125 Q2050.5938,1133.9375 2049.9844,1133.7188 Q2049.375,1133.5 2048.75,1133.5 Q2047.9844,1133.5 2047.3438,1133.8281 Q2046.7188,1134.1563 2046.2188,1134.9063 Q2045.7344,1135.6563 2045.7344,1136.6875 L2045.7344,1137.7813 Q2045.7344,1139.0156 2046.625,1139.8438 Q2047.5156,1140.6563 2049.1094,1140.6563 Q2050.0469,1140.6563 2050.7031,1140.4063 Q2051.0938,1140.25 2051.5156,1139.8125 Q2051.7813,1139.5469 2051.9219,1139.4688 Q2052.0781,1139.3906 2052.2813,1139.3906 Q2052.6094,1139.3906 2052.8594,1139.6563 Q2053.125,1139.9063 2053.125,1140.25 Q2053.125,1140.5938 2052.7813,1141 Q2052.2813,1141.5781 2051.4844,1141.9063 Q2050.4063,1142.3594 2049.1094,1142.3594 Q2047.5938,1142.3594 2046.3906,1141.7344 Q2045.4063,1141.2344 2044.7188,1140.1719 Q2044.0313,1139.0938 2044.0313,1137.8125 L2044.0313,1136.6563 Q2044.0313,1135.3281 2044.6406,1134.1875 Q2045.2656,1133.0313 2046.3594,1132.4219 Q2047.4531,1131.7969 2048.6875,1131.7969 Q2049.4219,1131.7969 2050.0625,1131.9688 Q2050.7188,1132.125 2051.2656,1132.4844 Z " fill="#000000"/><text fill="#000000" font-family="sans-serif" font-size="14" lengthAdjust="spacing" textLength="87" x="2062.5" y="1142.3379">NpMessenger</text><line style="stroke:#181818;stroke-width:0.5;" x1="2034.5" x2="2151.5" y1="1152.6094" y2="1152.6094"/><line style="stroke:#181818;stroke-width:0.5;" x1="2034.5" x2="2151.5" y1="1160.6094" y2="1160.6094"/></g><!--class MessageParameters--><g id="elem_MessageParameters"><rect codeLine="62" fill="#F1F1F1" height="206.4844" id="MessageParameters" rx="2.5" ry="2.5" style="stroke:#181818;stroke-width:0.5;" width="397" x="2200.5" y="704.6094"/><ellipse cx="2329.75" cy="720.6094" fill="#ADD1B2" rx="11" ry="11" style="stroke:#181818;stroke-width:1.0;"/><path d="M2332.5156,716.4844 Q2332.6719,716.2656 2332.8594,716.1563 Q2333.0469,716.0469 2333.2656,716.0469 Q2333.6406,716.0469 2333.875,716.3125 Q2334.1094,716.5625 2334.1094,717.1719 L2334.1094,718.625 Q2334.1094,719.2344 2333.875,719.5 Q2333.6406,719.7656 2333.2656,719.7656 Q2332.9219,719.7656 2332.7188,719.5625 Q2332.5156,719.375 2332.4063,718.8594 Q2332.3594,718.5 2332.1719,718.3125 Q2331.8438,717.9375 2331.2344,717.7188 Q2330.625,717.5 2330,717.5 Q2329.2344,717.5 2328.5938,717.8281 Q2327.9688,718.1563 2327.4688,718.9063 Q2326.9844,719.6563 2326.9844,720.6875 L2326.9844,721.7813 Q2326.9844,723.0156 2327.875,723.8438 Q2328.7656,724.6563 2330.3594,724.6563 Q2331.2969,724.6563 2331.9531,724.4063 Q2332.3438,724.25 2332.7656,723.8125 Q2333.0313,723.5469 2333.1719,723.4688 Q2333.3281,723.3906 2333.5313,723.3906 Q2333.8594,723.3906 2334.1094,723.6563 Q2334.375,723.9063 2334.375,724.25 Q2334.375,724.5938 2334.0313,725 Q2333.5313,725.5781 2332.7344,725.9063 Q2331.6563,726.3594 2330.3594,726.3594 Q2328.8438,726.3594 2327.6406,725.7344 Q2326.6563,725.2344 2325.9688,724.1719 Q2325.2813,723.0938 2325.2813,721.8125 L2325.2813,720.6563 Q2325.2813,719.3281 2325.8906,718.1875 Q2326.5156,717.0313 2327.6094,716.4219 Q2328.7031,715.7969 2329.9375,715.7969 Q2330.6719,715.7969 2331.3125,715.9688 Q2331.9688,716.125 2332.5156,716.4844 Z " fill="#000000"/><text fill="#000000" font-family="sans-serif" font-size="14" lengthAdjust="spacing" textLength="130" x="2350.25" y="726.3379">MessageParameters</text><line style="stroke:#181818;stroke-width:0.5;" x1="2201.5" x2="2596.5" y1="736.6094" y2="736.6094"/><ellipse cx="2211.5" cy="750.9141" fill="none" rx="3" ry="3" style="stroke:#038048;stroke-width:1.0;"/><text fill="#000000" font-family="sans-serif" font-size="14" lengthAdjust="spacing" textLength="126" x="2220.5" y="755.1426">string _targetServer</text><ellipse cx="2211.5" cy="768.5234" fill="none" rx="3" ry="3" style="stroke:#038048;stroke-width:1.0;"/><text fill="#000000" font-family="sans-serif" font-size="14" lengthAdjust="spacing" textLength="52" x="2220.5" y="772.752">int _port</text><ellipse cx="2211.5" cy="786.1328" fill="none" rx="3" ry="3" style="stroke:#038048;stroke-width:1.0;"/><text fill="#000000" font-family="sans-serif" font-size="14" lengthAdjust="spacing" textLength="81" x="2220.5" y="790.3613">bool _tlsFirst</text><ellipse cx="2211.5" cy="803.7422" fill="none" rx="3" ry="3" style="stroke:#038048;stroke-width:1.0;"/><text fill="#000000" font-family="sans-serif" font-size="14" lengthAdjust="spacing" textLength="185" x="2220.5" y="807.9707">string _hostNameInCertificate</text><ellipse cx="2211.5" cy="821.3516" fill="none" rx="3" ry="3" style="stroke:#038048;stroke-width:1.0;"/><text fill="#000000" font-family="sans-serif" font-size="14" lengthAdjust="spacing" textLength="209" x="2220.5" y="825.5801">string _serverCertificateFilename</text><ellipse cx="2211.5" cy="838.9609" fill="none" rx="3" ry="3" style="stroke:#038048;stroke-width:1.0;"/><text fill="#000000" font-family="sans-serif" font-size="14" lengthAdjust="spacing" textLength="132" x="2220.5" y="843.1895">string _cachedFQDN</text><ellipse cx="2211.5" cy="856.5703" fill="none" rx="3" ry="3" style="stroke:#038048;stroke-width:1.0;"/><text fill="#000000" font-family="sans-serif" font-size="14" lengthAdjust="spacing" textLength="145" x="2220.5" y="860.7988">TimeoutTimer _timeout</text><ellipse cx="2211.5" cy="874.1797" fill="none" rx="3" ry="3" style="stroke:#038048;stroke-width:1.0;"/><text fill="#000000" font-family="sans-serif" font-size="14" lengthAdjust="spacing" textLength="371" x="2220.5" y="878.4082">SqlConnectionIPAddressPreference _ipAddressPreference</text><ellipse cx="2211.5" cy="891.7891" fill="none" rx="3" ry="3" style="stroke:#038048;stroke-width:1.0;"/><text fill="#000000" font-family="sans-serif" font-size="14" lengthAdjust="spacing" textLength="193" x="2220.5" y="896.0176">SQLDNSInfo _pendingDNSInfo</text><line style="stroke:#181818;stroke-width:0.5;" x1="2201.5" x2="2596.5" y1="903.0938" y2="903.0938"/></g><!--class Packet--><g id="elem_Packet"><rect codeLine="73" fill="#F1F1F1" height="312.1406" id="Packet" rx="2.5" ry="2.5" style="stroke:#181818;stroke-width:0.5;" width="257" x="2187.5" y="988.6094"/><ellipse cx="2290.25" cy="1004.6094" fill="#ADD1B2" rx="11" ry="11" style="stroke:#181818;stroke-width:1.0;"/><path d="M2293.0156,1000.4844 Q2293.1719,1000.2656 2293.3594,1000.1563 Q2293.5469,1000.0469 2293.7656,1000.0469 Q2294.1406,1000.0469 2294.375,1000.3125 Q2294.6094,1000.5625 2294.6094,1001.1719 L2294.6094,1002.625 Q2294.6094,1003.2344 2294.375,1003.5 Q2294.1406,1003.7656 2293.7656,1003.7656 Q2293.4219,1003.7656 2293.2188,1003.5625 Q2293.0156,1003.375 2292.9063,1002.8594 Q2292.8594,1002.5 2292.6719,1002.3125 Q2292.3438,1001.9375 2291.7344,1001.7188 Q2291.125,1001.5 2290.5,1001.5 Q2289.7344,1001.5 2289.0938,1001.8281 Q2288.4688,1002.1563 2287.9688,1002.9063 Q2287.4844,1003.6563 2287.4844,1004.6875 L2287.4844,1005.7813 Q2287.4844,1007.0156 2288.375,1007.8438 Q2289.2656,1008.6563 2290.8594,1008.6563 Q2291.7969,1008.6563 2292.4531,1008.4063 Q2292.8438,1008.25 2293.2656,1007.8125 Q2293.5313,1007.5469 2293.6719,1007.4688 Q2293.8281,1007.3906 2294.0313,1007.3906 Q2294.3594,1007.3906 2294.6094,1007.6563 Q2294.875,1007.9063 2294.875,1008.25 Q2294.875,1008.5938 2294.5313,1009 Q2294.0313,1009.5781 2293.2344,1009.9063 Q2292.1563,1010.3594 2290.8594,1010.3594 Q2289.3438,1010.3594 2288.1406,1009.7344 Q2287.1563,1009.2344 2286.4688,1008.1719 Q2285.7813,1007.0938 2285.7813,1005.8125 L2285.7813,1004.6563 Q2285.7813,1003.3281 2286.3906,1002.1875 Q2287.0156,1001.0313 2288.1094,1000.4219 Q2289.2031,999.7969 2290.4375,999.7969 Q2291.1719,999.7969 2291.8125,999.9688 Q2292.4688,1000.125 2293.0156,1000.4844 Z " fill="#000000"/><text fill="#000000" font-family="sans-serif" font-size="14" lengthAdjust="spacing" textLength="43" x="2310.75" y="1010.3379">Packet</text><line style="stroke:#181818;stroke-width:0.5;" x1="2188.5" x2="2443.5" y1="1020.6094" y2="1020.6094"/><ellipse cx="2198.5" cy="1034.9141" fill="none" rx="3" ry="3" style="stroke:#038048;stroke-width:1.0;"/><text fill="#000000" font-family="sans-serif" font-size="14" lengthAdjust="spacing" textLength="73" x="2207.5" y="1039.1426">int DataLeft</text><ellipse cx="2198.5" cy="1052.5234" fill="none" rx="3" ry="3" style="stroke:#038048;stroke-width:1.0;"/><text fill="#000000" font-family="sans-serif" font-size="14" lengthAdjust="spacing" textLength="112" x="2207.5" y="1056.752">bool IsOutOfBand</text><ellipse cx="2198.5" cy="1070.1328" fill="none" rx="3" ry="3" style="stroke:#038048;stroke-width:1.0;"/><text fill="#000000" font-family="sans-serif" font-size="14" lengthAdjust="spacing" textLength="63" x="2207.5" y="1074.3613">int Length</text><ellipse cx="2198.5" cy="1087.7422" fill="none" rx="3" ry="3" style="stroke:#038048;stroke-width:1.0;"/><text fill="#000000" font-family="sans-serif" font-size="14" lengthAdjust="spacing" textLength="81" x="2207.5" y="1091.9707">bool IsInvalid</text><ellipse cx="2198.5" cy="1105.3516" fill="none" rx="3" ry="3" style="stroke:#038048;stroke-width:1.0;"/><text fill="#000000" font-family="sans-serif" font-size="14" lengthAdjust="spacing" textLength="152" x="2207.5" y="1109.5801">int ReservedHeaderSize</text><line style="stroke:#181818;stroke-width:0.5;" x1="2188.5" x2="2443.5" y1="1116.6563" y2="1116.6563"/><ellipse cx="2198.5" cy="1130.9609" fill="#84BE84" rx="3" ry="3" style="stroke:#038048;stroke-width:1.0;"/><text fill="#000000" font-family="sans-serif" font-size="14" lengthAdjust="spacing" textLength="60" x="2207.5" y="1135.1895">Allocate()</text><ellipse cx="2198.5" cy="1148.5703" fill="#84BE84" rx="3" ry="3" style="stroke:#038048;stroke-width:1.0;"/><text fill="#000000" font-family="sans-serif" font-size="14" lengthAdjust="spacing" textLength="62" x="2207.5" y="1152.7988">Release()</text><ellipse cx="2198.5" cy="1166.1797" fill="#84BE84" rx="3" ry="3" style="stroke:#038048;stroke-width:1.0;"/><text fill="#000000" font-family="sans-serif" font-size="14" lengthAdjust="spacing" textLength="115" x="2207.5" y="1170.4082">SetHeaderActive()</text><ellipse cx="2198.5" cy="1183.7891" fill="#84BE84" rx="3" ry="3" style="stroke:#038048;stroke-width:1.0;"/><text fill="#000000" font-family="sans-serif" font-size="14" lengthAdjust="spacing" textLength="197" x="2207.5" y="1188.0176">Span&lt;byte&gt; GetHeaderBuffer()</text><ellipse cx="2198.5" cy="1201.3984" fill="#84BE84" rx="3" ry="3" style="stroke:#038048;stroke-width:1.0;"/><text fill="#000000" font-family="sans-serif" font-size="14" lengthAdjust="spacing" textLength="139" x="2207.5" y="1205.627">GetData(byte[] buffer)</text><ellipse cx="2198.5" cy="1219.0078" fill="#84BE84" rx="3" ry="3" style="stroke:#038048;stroke-width:1.0;"/><text fill="#000000" font-family="sans-serif" font-size="14" lengthAdjust="spacing" textLength="161" x="2207.5" y="1223.2363">TakeData(Packet packet)</text><ellipse cx="2198.5" cy="1236.6172" fill="#84BE84" rx="3" ry="3" style="stroke:#038048;stroke-width:1.0;"/><text fill="#000000" font-family="sans-serif" font-size="14" lengthAdjust="spacing" textLength="148" x="2207.5" y="1240.8457">TakeData(byte[] buffer)</text><ellipse cx="2198.5" cy="1254.2266" fill="#84BE84" rx="3" ry="3" style="stroke:#038048;stroke-width:1.0;"/><text fill="#000000" font-family="sans-serif" font-size="14" lengthAdjust="spacing" textLength="156" x="2207.5" y="1258.4551">AppendData(byte[] data)</text><ellipse cx="2198.5" cy="1271.8359" fill="#84BE84" rx="3" ry="3" style="stroke:#038048;stroke-width:1.0;"/><text fill="#000000" font-family="sans-serif" font-size="14" lengthAdjust="spacing" textLength="231" x="2207.5" y="1276.0645">ValueTask ReadFromStreamAsync()</text><ellipse cx="2198.5" cy="1289.4453" fill="#84BE84" rx="3" ry="3" style="stroke:#038048;stroke-width:1.0;"/><text fill="#000000" font-family="sans-serif" font-size="14" lengthAdjust="spacing" textLength="214" x="2207.5" y="1293.6738">ValueTask WriteToStreamAsync()</text></g><!--class SqlNetworkStream--><g id="elem_SqlNetworkStream"><rect codeLine="91" fill="#F1F1F1" height="83.2188" id="SqlNetworkStream" rx="2.5" ry="2.5" style="stroke:#181818;stroke-width:0.5;" width="174" x="3096" y="766.1094"/><ellipse cx="3123.15" cy="782.1094" fill="#ADD1B2" rx="11" ry="11" style="stroke:#181818;stroke-width:1.0;"/><path d="M3125.9156,777.9844 Q3126.0719,777.7656 3126.2594,777.6563 Q3126.4469,777.5469 3126.6656,777.5469 Q3127.0406,777.5469 3127.275,777.8125 Q3127.5094,778.0625 3127.5094,778.6719 L3127.5094,780.125 Q3127.5094,780.7344 3127.275,781 Q3127.0406,781.2656 3126.6656,781.2656 Q3126.3219,781.2656 3126.1188,781.0625 Q3125.9156,780.875 3125.8063,780.3594 Q3125.7594,780 3125.5719,779.8125 Q3125.2438,779.4375 3124.6344,779.2188 Q3124.025,779 3123.4,779 Q3122.6344,779 3121.9938,779.3281 Q3121.3688,779.6563 3120.8688,780.4063 Q3120.3844,781.1563 3120.3844,782.1875 L3120.3844,783.2813 Q3120.3844,784.5156 3121.275,785.3438 Q3122.1656,786.1563 3123.7594,786.1563 Q3124.6969,786.1563 3125.3531,785.9063 Q3125.7438,785.75 3126.1656,785.3125 Q3126.4313,785.0469 3126.5719,784.9688 Q3126.7281,784.8906 3126.9313,784.8906 Q3127.2594,784.8906 3127.5094,785.1563 Q3127.775,785.4063 3127.775,785.75 Q3127.775,786.0938 3127.4313,786.5 Q3126.9313,787.0781 3126.1344,787.4063 Q3125.0563,787.8594 3123.7594,787.8594 Q3122.2438,787.8594 3121.0406,787.2344 Q3120.0563,786.7344 3119.3688,785.6719 Q3118.6813,784.5938 3118.6813,783.3125 L3118.6813,782.1563 Q3118.6813,780.8281 3119.2906,779.6875 Q3119.9156,778.5313 3121.0094,777.9219 Q3122.1031,777.2969 3123.3375,777.2969 Q3124.0719,777.2969 3124.7125,777.4688 Q3125.3688,777.625 3125.9156,777.9844 Z " fill="#000000"/><text fill="#000000" font-family="sans-serif" font-size="14" lengthAdjust="spacing" textLength="115" x="3139.85" y="787.8379">SqlNetworkStream</text><line style="stroke:#181818;stroke-width:0.5;" x1="3097" x2="3269" y1="798.1094" y2="798.1094"/><rect fill="none" height="6" style="stroke:#C82930;stroke-width:1.0;" width="6" x="3104" y="809.4141"/><text fill="#000000" font-family="sans-serif" font-size="14" lengthAdjust="spacing" textLength="148" x="3116" y="816.6426">_writeAsyncSemaphore</text><rect fill="none" height="6" style="stroke:#C82930;stroke-width:1.0;" width="6" x="3104" y="827.0234"/><text fill="#000000" font-family="sans-serif" font-size="14" lengthAdjust="spacing" textLength="148" x="3116" y="834.252">_readAsyncSemaphore</text><line style="stroke:#181818;stroke-width:0.5;" x1="3097" x2="3269" y1="841.3281" y2="841.3281"/></g><!--class SqlSslStream--><g id="elem_SqlSslStream"><rect codeLine="95" fill="#F1F1F1" height="83.2188" id="SqlSslStream" rx="2.5" ry="2.5" style="stroke:#181818;stroke-width:0.5;" width="174" x="2887" y="766.1094"/><ellipse cx="2928.1" cy="782.1094" fill="#ADD1B2" rx="11" ry="11" style="stroke:#181818;stroke-width:1.0;"/><path d="M2930.8656,777.9844 Q2931.0219,777.7656 2931.2094,777.6563 Q2931.3969,777.5469 2931.6156,777.5469 Q2931.9906,777.5469 2932.225,777.8125 Q2932.4594,778.0625 2932.4594,778.6719 L2932.4594,780.125 Q2932.4594,780.7344 2932.225,781 Q2931.9906,781.2656 2931.6156,781.2656 Q2931.2719,781.2656 2931.0688,781.0625 Q2930.8656,780.875 2930.7563,780.3594 Q2930.7094,780 2930.5219,779.8125 Q2930.1938,779.4375 2929.5844,779.2188 Q2928.975,779 2928.35,779 Q2927.5844,779 2926.9438,779.3281 Q2926.3188,779.6563 2925.8188,780.4063 Q2925.3344,781.1563 2925.3344,782.1875 L2925.3344,783.2813 Q2925.3344,784.5156 2926.225,785.3438 Q2927.1156,786.1563 2928.7094,786.1563 Q2929.6469,786.1563 2930.3031,785.9063 Q2930.6938,785.75 2931.1156,785.3125 Q2931.3813,785.0469 2931.5219,784.9688 Q2931.6781,784.8906 2931.8813,784.8906 Q2932.2094,784.8906 2932.4594,785.1563 Q2932.725,785.4063 2932.725,785.75 Q2932.725,786.0938 2932.3813,786.5 Q2931.8813,787.0781 2931.0844,787.4063 Q2930.0063,787.8594 2928.7094,787.8594 Q2927.1938,787.8594 2925.9906,787.2344 Q2925.0063,786.7344 2924.3188,785.6719 Q2923.6313,784.5938 2923.6313,783.3125 L2923.6313,782.1563 Q2923.6313,780.8281 2924.2406,779.6875 Q2924.8656,778.5313 2925.9594,777.9219 Q2927.0531,777.2969 2928.2875,777.2969 Q2929.0219,777.2969 2929.6625,777.4688 Q2930.3188,777.625 2930.8656,777.9844 Z " fill="#000000"/><text fill="#000000" font-family="sans-serif" font-size="14" lengthAdjust="spacing" textLength="84" x="2947.9" y="787.8379">SqlSslStream</text><line style="stroke:#181818;stroke-width:0.5;" x1="2888" x2="3060" y1="798.1094" y2="798.1094"/><rect fill="none" height="6" style="stroke:#C82930;stroke-width:1.0;" width="6" x="2895" y="809.4141"/><text fill="#000000" font-family="sans-serif" font-size="14" lengthAdjust="spacing" textLength="148" x="2907" y="816.6426">_writeAsyncSemaphore</text><rect fill="none" height="6" style="stroke:#C82930;stroke-width:1.0;" width="6" x="2895" y="827.0234"/><text fill="#000000" font-family="sans-serif" font-size="14" lengthAdjust="spacing" textLength="148" x="2907" y="834.252">_readAsyncSemaphore</text><line style="stroke:#181818;stroke-width:0.5;" x1="2888" x2="3060" y1="841.3281" y2="841.3281"/></g><!--class SslOverTdsStream--><g id="elem_SslOverTdsStream"><rect codeLine="99" fill="#F1F1F1" height="65.6094" id="SslOverTdsStream" rx="2.5" ry="2.5" style="stroke:#181818;stroke-width:0.5;" width="219" x="2632.5" y="774.6094"/><ellipse cx="2678.25" cy="790.6094" fill="#ADD1B2" rx="11" ry="11" style="stroke:#181818;stroke-width:1.0;"/><path d="M2681.0156,786.4844 Q2681.1719,786.2656 2681.3594,786.1563 Q2681.5469,786.0469 2681.7656,786.0469 Q2682.1406,786.0469 2682.375,786.3125 Q2682.6094,786.5625 2682.6094,787.1719 L2682.6094,788.625 Q2682.6094,789.2344 2682.375,789.5 Q2682.1406,789.7656 2681.7656,789.7656 Q2681.4219,789.7656 2681.2188,789.5625 Q2681.0156,789.375 2680.9063,788.8594 Q2680.8594,788.5 2680.6719,788.3125 Q2680.3438,787.9375 2679.7344,787.7188 Q2679.125,787.5 2678.5,787.5 Q2677.7344,787.5 2677.0938,787.8281 Q2676.4688,788.1563 2675.9688,788.9063 Q2675.4844,789.6563 2675.4844,790.6875 L2675.4844,791.7813 Q2675.4844,793.0156 2676.375,793.8438 Q2677.2656,794.6563 2678.8594,794.6563 Q2679.7969,794.6563 2680.4531,794.4063 Q2680.8438,794.25 2681.2656,793.8125 Q2681.5313,793.5469 2681.6719,793.4688 Q2681.8281,793.3906 2682.0313,793.3906 Q2682.3594,793.3906 2682.6094,793.6563 Q2682.875,793.9063 2682.875,794.25 Q2682.875,794.5938 2682.5313,795 Q2682.0313,795.5781 2681.2344,795.9063 Q2680.1563,796.3594 2678.8594,796.3594 Q2677.3438,796.3594 2676.1406,795.7344 Q2675.1563,795.2344 2674.4688,794.1719 Q2673.7813,793.0938 2673.7813,791.8125 L2673.7813,790.6563 Q2673.7813,789.3281 2674.3906,788.1875 Q2675.0156,787.0313 2676.1094,786.4219 Q2677.2031,785.7969 2678.4375,785.7969 Q2679.1719,785.7969 2679.8125,785.9688 Q2680.4688,786.125 2681.0156,786.4844 Z " fill="#000000"/><text fill="#000000" font-family="sans-serif" font-size="14" lengthAdjust="spacing" textLength="119" x="2698.75" y="796.3379">SslOverTdsStream</text><line style="stroke:#181818;stroke-width:0.5;" x1="2633.5" x2="2850.5" y1="806.6094" y2="806.6094"/><line style="stroke:#181818;stroke-width:0.5;" x1="2633.5" x2="2850.5" y1="814.6094" y2="814.6094"/><ellipse cx="2643.5" cy="828.9141" fill="#84BE84" rx="3" ry="3" style="stroke:#038048;stroke-width:1.0;"/><text fill="#000000" font-family="sans-serif" font-size="14" lengthAdjust="spacing" textLength="193" x="2652.5" y="833.1426">SetupPreLoginPacketHeader()</text></g><!--class Executor--><g id="elem_Executor"><rect codeLine="129" fill="#F1F1F1" height="65.6094" id="Executor" rx="2.5" ry="2.5" style="stroke:#181818;stroke-width:0.5;" width="171" x="94.5" y="774.6094"/><ellipse cx="148.25" cy="790.6094" fill="#ADD1B2" rx="11" ry="11" style="stroke:#181818;stroke-width:1.0;"/><path d="M151.0156,786.4844 Q151.1719,786.2656 151.3594,786.1563 Q151.5469,786.0469 151.7656,786.0469 Q152.1406,786.0469 152.375,786.3125 Q152.6094,786.5625 152.6094,787.1719 L152.6094,788.625 Q152.6094,789.2344 152.375,789.5 Q152.1406,789.7656 151.7656,789.7656 Q151.4219,789.7656 151.2188,789.5625 Q151.0156,789.375 150.9063,788.8594 Q150.8594,788.5 150.6719,788.3125 Q150.3438,787.9375 149.7344,787.7188 Q149.125,787.5 148.5,787.5 Q147.7344,787.5 147.0938,787.8281 Q146.4688,788.1563 145.9688,788.9063 Q145.4844,789.6563 145.4844,790.6875 L145.4844,791.7813 Q145.4844,793.0156 146.375,793.8438 Q147.2656,794.6563 148.8594,794.6563 Q149.7969,794.6563 150.4531,794.4063 Q150.8438,794.25 151.2656,793.8125 Q151.5313,793.5469 151.6719,793.4688 Q151.8281,793.3906 152.0313,793.3906 Q152.3594,793.3906 152.6094,793.6563 Q152.875,793.9063 152.875,794.25 Q152.875,794.5938 152.5313,795 Q152.0313,795.5781 151.2344,795.9063 Q150.1563,796.3594 148.8594,796.3594 Q147.3438,796.3594 146.1406,795.7344 Q145.1563,795.2344 144.4688,794.1719 Q143.7813,793.0938 143.7813,791.8125 L143.7813,790.6563 Q143.7813,789.3281 144.3906,788.1875 Q145.0156,787.0313 146.1094,786.4219 Q147.2031,785.7969 148.4375,785.7969 Q149.1719,785.7969 149.8125,785.9688 Q150.4688,786.125 151.0156,786.4844 Z " fill="#000000"/><text fill="#000000" font-family="sans-serif" font-size="14" lengthAdjust="spacing" textLength="55" x="168.75" y="796.3379">Executor</text><line style="stroke:#181818;stroke-width:0.5;" x1="95.5" x2="264.5" y1="806.6094" y2="806.6094"/><line style="stroke:#181818;stroke-width:0.5;" x1="95.5" x2="264.5" y1="814.6094" y2="814.6094"/><ellipse cx="105.5" cy="828.9141" fill="#84BE84" rx="3" ry="3" style="stroke:#038048;stroke-width:1.0;"/><text fill="#000000" font-family="sans-serif" font-size="14" lengthAdjust="spacing" textLength="145" x="114.5" y="833.1426">ValueTask RunAsync()</text></g><!--class IBufferHandler--><g id="elem_IBufferHandler"><rect codeLine="106" fill="#F1F1F1" height="48" id="IBufferHandler" rx="2.5" ry="2.5" style="stroke:#181818;stroke-width:0.5;" width="124" x="1520" y="783.6094"/><ellipse cx="1535" cy="799.6094" fill="#B4A7E5" rx="11" ry="11" style="stroke:#181818;stroke-width:1.0;"/><path d="M1535.9531,796.25 L1535.9531,802.9063 L1537.6719,802.9063 Q1538.2813,802.9063 1538.5469,803.1406 Q1538.8125,803.375 1538.8125,803.7656 Q1538.8125,804.1406 1538.5469,804.375 Q1538.2813,804.6094 1537.6719,804.6094 L1532.5313,804.6094 Q1531.9219,804.6094 1531.6563,804.375 Q1531.3906,804.1406 1531.3906,803.75 Q1531.3906,803.375 1531.6563,803.1406 Q1531.9219,802.9063 1532.5313,802.9063 L1534.25,802.9063 L1534.25,796.25 L1532.5313,796.25 Q1531.9219,796.25 1531.6563,796.0156 Q1531.3906,795.7813 1531.3906,795.3906 Q1531.3906,795.0156 1531.6563,794.7813 Q1531.9219,794.5469 1532.5313,794.5469 L1537.6719,794.5469 Q1538.2813,794.5469 1538.5469,794.7813 Q1538.8125,795.0156 1538.8125,795.3906 Q1538.8125,795.7813 1538.5469,796.0156 Q1538.2813,796.25 1537.6719,796.25 L1535.9531,796.25 Z " fill="#000000"/><text fill="#000000" font-family="sans-serif" font-size="14" font-style="italic" lengthAdjust="spacing" textLength="92" x="1549" y="805.3379">IBufferHandler</text><line style="stroke:#181818;stroke-width:0.5;" x1="1521" x2="1643" y1="815.6094" y2="815.6094"/><line style="stroke:#181818;stroke-width:0.5;" x1="1521" x2="1643" y1="823.6094" y2="823.6094"/></g><!--class IDataParser--><g id="elem_IDataParser"><rect codeLine="107" fill="#F1F1F1" height="65.6094" id="IDataParser" rx="2.5" ry="2.5" style="stroke:#181818;stroke-width:0.5;" width="279" x="1205.5" y="774.6094"/><ellipse cx="1302.75" cy="790.6094" fill="#B4A7E5" rx="11" ry="11" style="stroke:#181818;stroke-width:1.0;"/><path d="M1303.7031,787.25 L1303.7031,793.9063 L1305.4219,793.9063 Q1306.0313,793.9063 1306.2969,794.1406 Q1306.5625,794.375 1306.5625,794.7656 Q1306.5625,795.1406 1306.2969,795.375 Q1306.0313,795.6094 1305.4219,795.6094 L1300.2813,795.6094 Q1299.6719,795.6094 1299.4063,795.375 Q1299.1406,795.1406 1299.1406,794.75 Q1299.1406,794.375 1299.4063,794.1406 Q1299.6719,793.9063 1300.2813,793.9063 L1302,793.9063 L1302,787.25 L1300.2813,787.25 Q1299.6719,787.25 1299.4063,787.0156 Q1299.1406,786.7813 1299.1406,786.3906 Q1299.1406,786.0156 1299.4063,785.7813 Q1299.6719,785.5469 1300.2813,785.5469 L1305.4219,785.5469 Q1306.0313,785.5469 1306.2969,785.7813 Q1306.5625,786.0156 1306.5625,786.3906 Q1306.5625,786.7813 1306.2969,787.0156 Q1306.0313,787.25 1305.4219,787.25 L1303.7031,787.25 Z " fill="#000000"/><text fill="#000000" font-family="sans-serif" font-size="14" font-style="italic" lengthAdjust="spacing" textLength="76" x="1323.25" y="796.3379">IDataParser</text><line style="stroke:#181818;stroke-width:0.5;" x1="1206.5" x2="1483.5" y1="806.6094" y2="806.6094"/><line style="stroke:#181818;stroke-width:0.5;" x1="1206.5" x2="1483.5" y1="814.6094" y2="814.6094"/><ellipse cx="1216.5" cy="828.9141" fill="#84BE84" rx="3" ry="3" style="stroke:#038048;stroke-width:1.0;"/><text fill="#000000" font-family="sans-serif" font-size="14" lengthAdjust="spacing" textLength="253" x="1225.5" y="833.1426">ValueTask ParseDataAsync(byte[] data)</text></g><!--class ILoginHandler--><g id="elem_ILoginHandler"><rect codeLine="110" fill="#F1F1F1" height="65.6094" id="ILoginHandler" rx="2.5" ry="2.5" style="stroke:#181818;stroke-width:0.5;" width="121" x="1049.5" y="774.6094"/><ellipse cx="1064.5" cy="790.6094" fill="#B4A7E5" rx="11" ry="11" style="stroke:#181818;stroke-width:1.0;"/><path d="M1065.4531,787.25 L1065.4531,793.9063 L1067.1719,793.9063 Q1067.7813,793.9063 1068.0469,794.1406 Q1068.3125,794.375 1068.3125,794.7656 Q1068.3125,795.1406 1068.0469,795.375 Q1067.7813,795.6094 1067.1719,795.6094 L1062.0313,795.6094 Q1061.4219,795.6094 1061.1563,795.375 Q1060.8906,795.1406 1060.8906,794.75 Q1060.8906,794.375 1061.1563,794.1406 Q1061.4219,793.9063 1062.0313,793.9063 L1063.75,793.9063 L1063.75,787.25 L1062.0313,787.25 Q1061.4219,787.25 1061.1563,787.0156 Q1060.8906,786.7813 1060.8906,786.3906 Q1060.8906,786.0156 1061.1563,785.7813 Q1061.4219,785.5469 1062.0313,785.5469 L1067.1719,785.5469 Q1067.7813,785.5469 1068.0469,785.7813 Q1068.3125,786.0156 1068.3125,786.3906 Q1068.3125,786.7813 1068.0469,787.0156 Q1067.7813,787.25 1067.1719,787.25 L1065.4531,787.25 Z " fill="#000000"/><text fill="#000000" font-family="sans-serif" font-size="14" font-style="italic" lengthAdjust="spacing" textLength="89" x="1078.5" y="796.3379">ILoginHandler</text><line style="stroke:#181818;stroke-width:0.5;" x1="1050.5" x2="1169.5" y1="806.6094" y2="806.6094"/><line style="stroke:#181818;stroke-width:0.5;" x1="1050.5" x2="1169.5" y1="814.6094" y2="814.6094"/><ellipse cx="1060.5" cy="828.9141" fill="#84BE84" rx="3" ry="3" style="stroke:#038048;stroke-width:1.0;"/><text fill="#000000" font-family="sans-serif" font-size="14" lengthAdjust="spacing" textLength="63" x="1069.5" y="833.1426">Connect()</text></g><!--class INetworkHandler--><g id="elem_INetworkHandler"><rect codeLine="113" fill="#F1F1F1" height="83.2188" id="INetworkHandler" rx="2.5" ry="2.5" style="stroke:#181818;stroke-width:0.5;" width="378" x="636" y="766.1094"/><ellipse cx="767.75" cy="782.1094" fill="#B4A7E5" rx="11" ry="11" style="stroke:#181818;stroke-width:1.0;"/><path d="M768.7031,778.75 L768.7031,785.4063 L770.4219,785.4063 Q771.0313,785.4063 771.2969,785.6406 Q771.5625,785.875 771.5625,786.2656 Q771.5625,786.6406 771.2969,786.875 Q771.0313,787.1094 770.4219,787.1094 L765.2813,787.1094 Q764.6719,787.1094 764.4063,786.875 Q764.1406,786.6406 764.1406,786.25 Q764.1406,785.875 764.4063,785.6406 Q764.6719,785.4063 765.2813,785.4063 L767,785.4063 L767,778.75 L765.2813,778.75 Q764.6719,778.75 764.4063,778.5156 Q764.1406,778.2813 764.1406,777.8906 Q764.1406,777.5156 764.4063,777.2813 Q764.6719,777.0469 765.2813,777.0469 L770.4219,777.0469 Q771.0313,777.0469 771.2969,777.2813 Q771.5625,777.5156 771.5625,777.8906 Q771.5625,778.2813 771.2969,778.5156 Q771.0313,778.75 770.4219,778.75 L768.7031,778.75 Z " fill="#000000"/><text fill="#000000" font-family="sans-serif" font-size="14" font-style="italic" lengthAdjust="spacing" textLength="106" x="788.25" y="787.8379">INetworkHandler</text><line style="stroke:#181818;stroke-width:0.5;" x1="637" x2="1013" y1="798.1094" y2="798.1094"/><line style="stroke:#181818;stroke-width:0.5;" x1="637" x2="1013" y1="806.1094" y2="806.1094"/><ellipse cx="647" cy="820.4141" fill="#84BE84" rx="3" ry="3" style="stroke:#038048;stroke-width:1.0;"/><text fill="#000000" font-family="sans-serif" font-size="14" lengthAdjust="spacing" textLength="302" x="656" y="824.6426">ValueTask ProcessPacketAsync(Packet packet)</text><ellipse cx="647" cy="838.0234" fill="#84BE84" rx="3" ry="3" style="stroke:#038048;stroke-width:1.0;"/><text fill="#000000" font-family="sans-serif" font-size="14" lengthAdjust="spacing" textLength="352" x="656" y="842.252">ValueTask&lt;NetworkResult&gt; ReadNetworkPacketAsync()</text></g><!--class IStateHandler--><g id="elem_IStateHandler"><rect codeLine="117" fill="#F1F1F1" height="83.2188" id="IStateHandler" rx="2.5" ry="2.5" style="stroke:#181818;stroke-width:0.5;" width="140" x="461" y="766.1094"/><ellipse cx="485.45" cy="782.1094" fill="#B4A7E5" rx="11" ry="11" style="stroke:#181818;stroke-width:1.0;"/><path d="M486.4031,778.75 L486.4031,785.4063 L488.1219,785.4063 Q488.7313,785.4063 488.9969,785.6406 Q489.2625,785.875 489.2625,786.2656 Q489.2625,786.6406 488.9969,786.875 Q488.7313,787.1094 488.1219,787.1094 L482.9813,787.1094 Q482.3719,787.1094 482.1063,786.875 Q481.8406,786.6406 481.8406,786.25 Q481.8406,785.875 482.1063,785.6406 Q482.3719,785.4063 482.9813,785.4063 L484.7,785.4063 L484.7,778.75 L482.9813,778.75 Q482.3719,778.75 482.1063,778.5156 Q481.8406,778.2813 481.8406,777.8906 Q481.8406,777.5156 482.1063,777.2813 Q482.3719,777.0469 482.9813,777.0469 L488.1219,777.0469 Q488.7313,777.0469 488.9969,777.2813 Q489.2625,777.5156 489.2625,777.8906 Q489.2625,778.2813 488.9969,778.5156 Q488.7313,778.75 488.1219,778.75 L486.4031,778.75 Z " fill="#000000"/><text fill="#000000" font-family="sans-serif" font-size="14" font-style="italic" lengthAdjust="spacing" textLength="87" x="501.55" y="787.8379">IStateHandler</text><line style="stroke:#181818;stroke-width:0.5;" x1="462" x2="600" y1="798.1094" y2="798.1094"/><line style="stroke:#181818;stroke-width:0.5;" x1="462" x2="600" y1="806.1094" y2="806.1094"/><ellipse cx="472" cy="820.4141" fill="#84BE84" rx="3" ry="3" style="stroke:#038048;stroke-width:1.0;"/><text fill="#000000" font-family="sans-serif" font-size="14" lengthAdjust="spacing" textLength="88" x="481" y="824.6426">UpdateState()</text><ellipse cx="472" cy="838.0234" fill="#84BE84" rx="3" ry="3" style="stroke:#038048;stroke-width:1.0;"/><text fill="#000000" font-family="sans-serif" font-size="14" lengthAdjust="spacing" textLength="114" x="481" y="842.252">GetCurrentState()</text></g><!--class ITypesHandler--><g id="elem_ITypesHandler"><rect codeLine="121" fill="#F1F1F1" height="48" id="ITypesHandler" rx="2.5" ry="2.5" style="stroke:#181818;stroke-width:0.5;" width="125" x="300.5" y="783.6094"/><ellipse cx="315.5" cy="799.6094" fill="#B4A7E5" rx="11" ry="11" style="stroke:#181818;stroke-width:1.0;"/><path d="M316.4531,796.25 L316.4531,802.9063 L318.1719,802.9063 Q318.7813,802.9063 319.0469,803.1406 Q319.3125,803.375 319.3125,803.7656 Q319.3125,804.1406 319.0469,804.375 Q318.7813,804.6094 318.1719,804.6094 L313.0313,804.6094 Q312.4219,804.6094 312.1563,804.375 Q311.8906,804.1406 311.8906,803.75 Q311.8906,803.375 312.1563,803.1406 Q312.4219,802.9063 313.0313,802.9063 L314.75,802.9063 L314.75,796.25 L313.0313,796.25 Q312.4219,796.25 312.1563,796.0156 Q311.8906,795.7813 311.8906,795.3906 Q311.8906,795.0156 312.1563,794.7813 Q312.4219,794.5469 313.0313,794.5469 L318.1719,794.5469 Q318.7813,794.5469 319.0469,794.7813 Q319.3125,795.0156 319.3125,795.3906 Q319.3125,795.7813 319.0469,796.0156 Q318.7813,796.25 318.1719,796.25 L316.4531,796.25 Z " fill="#000000"/><text fill="#000000" font-family="sans-serif" font-size="14" font-style="italic" lengthAdjust="spacing" textLength="93" x="329.5" y="805.3379">ITypesHandler</text><line style="stroke:#181818;stroke-width:0.5;" x1="301.5" x2="424.5" y1="815.6094" y2="815.6094"/><line style="stroke:#181818;stroke-width:0.5;" x1="301.5" x2="424.5" y1="823.6094" y2="823.6094"/></g><!--class BufferHandler--><g id="elem_BufferHandler"><rect codeLine="122" fill="#F1F1F1" height="48" id="BufferHandler" rx="2.5" ry="2.5" style="stroke:#181818;stroke-width:0.5;" width="119" x="1522.5" y="1120.6094"/><ellipse cx="1537.5" cy="1136.6094" fill="#ADD1B2" rx="11" ry="11" style="stroke:#181818;stroke-width:1.0;"/><path d="M1540.2656,1132.4844 Q1540.4219,1132.2656 1540.6094,1132.1563 Q1540.7969,1132.0469 1541.0156,1132.0469 Q1541.3906,1132.0469 1541.625,1132.3125 Q1541.8594,1132.5625 1541.8594,1133.1719 L1541.8594,1134.625 Q1541.8594,1135.2344 1541.625,1135.5 Q1541.3906,1135.7656 1541.0156,1135.7656 Q1540.6719,1135.7656 1540.4688,1135.5625 Q1540.2656,1135.375 1540.1563,1134.8594 Q1540.1094,1134.5 1539.9219,1134.3125 Q1539.5938,1133.9375 1538.9844,1133.7188 Q1538.375,1133.5 1537.75,1133.5 Q1536.9844,1133.5 1536.3438,1133.8281 Q1535.7188,1134.1563 1535.2188,1134.9063 Q1534.7344,1135.6563 1534.7344,1136.6875 L1534.7344,1137.7813 Q1534.7344,1139.0156 1535.625,1139.8438 Q1536.5156,1140.6563 1538.1094,1140.6563 Q1539.0469,1140.6563 1539.7031,1140.4063 Q1540.0938,1140.25 1540.5156,1139.8125 Q1540.7813,1139.5469 1540.9219,1139.4688 Q1541.0781,1139.3906 1541.2813,1139.3906 Q1541.6094,1139.3906 1541.8594,1139.6563 Q1542.125,1139.9063 1542.125,1140.25 Q1542.125,1140.5938 1541.7813,1141 Q1541.2813,1141.5781 1540.4844,1141.9063 Q1539.4063,1142.3594 1538.1094,1142.3594 Q1536.5938,1142.3594 1535.3906,1141.7344 Q1534.4063,1141.2344 1533.7188,1140.1719 Q1533.0313,1139.0938 1533.0313,1137.8125 L1533.0313,1136.6563 Q1533.0313,1135.3281 1533.6406,1134.1875 Q1534.2656,1133.0313 1535.3594,1132.4219 Q1536.4531,1131.7969 1537.6875,1131.7969 Q1538.4219,1131.7969 1539.0625,1131.9688 Q1539.7188,1132.125 1540.2656,1132.4844 Z " fill="#000000"/><text fill="#000000" font-family="sans-serif" font-size="14" lengthAdjust="spacing" textLength="87" x="1551.5" y="1142.3379">BufferHandler</text><line style="stroke:#181818;stroke-width:0.5;" x1="1523.5" x2="1640.5" y1="1152.6094" y2="1152.6094"/><line style="stroke:#181818;stroke-width:0.5;" x1="1523.5" x2="1640.5" y1="1160.6094" y2="1160.6094"/></g><!--class DataParser--><g id="elem_DataParser"><rect codeLine="123" fill="#F1F1F1" height="48" id="DataParser" rx="2.5" ry="2.5" style="stroke:#181818;stroke-width:0.5;" width="104" x="1293" y="1120.6094"/><ellipse cx="1308" cy="1136.6094" fill="#ADD1B2" rx="11" ry="11" style="stroke:#181818;stroke-width:1.0;"/><path d="M1310.7656,1132.4844 Q1310.9219,1132.2656 1311.1094,1132.1563 Q1311.2969,1132.0469 1311.5156,1132.0469 Q1311.8906,1132.0469 1312.125,1132.3125 Q1312.3594,1132.5625 1312.3594,1133.1719 L1312.3594,1134.625 Q1312.3594,1135.2344 1312.125,1135.5 Q1311.8906,1135.7656 1311.5156,1135.7656 Q1311.1719,1135.7656 1310.9688,1135.5625 Q1310.7656,1135.375 1310.6563,1134.8594 Q1310.6094,1134.5 1310.4219,1134.3125 Q1310.0938,1133.9375 1309.4844,1133.7188 Q1308.875,1133.5 1308.25,1133.5 Q1307.4844,1133.5 1306.8438,1133.8281 Q1306.2188,1134.1563 1305.7188,1134.9063 Q1305.2344,1135.6563 1305.2344,1136.6875 L1305.2344,1137.7813 Q1305.2344,1139.0156 1306.125,1139.8438 Q1307.0156,1140.6563 1308.6094,1140.6563 Q1309.5469,1140.6563 1310.2031,1140.4063 Q1310.5938,1140.25 1311.0156,1139.8125 Q1311.2813,1139.5469 1311.4219,1139.4688 Q1311.5781,1139.3906 1311.7813,1139.3906 Q1312.1094,1139.3906 1312.3594,1139.6563 Q1312.625,1139.9063 1312.625,1140.25 Q1312.625,1140.5938 1312.2813,1141 Q1311.7813,1141.5781 1310.9844,1141.9063 Q1309.9063,1142.3594 1308.6094,1142.3594 Q1307.0938,1142.3594 1305.8906,1141.7344 Q1304.9063,1141.2344 1304.2188,1140.1719 Q1303.5313,1139.0938 1303.5313,1137.8125 L1303.5313,1136.6563 Q1303.5313,1135.3281 1304.1406,1134.1875 Q1304.7656,1133.0313 1305.8594,1132.4219 Q1306.9531,1131.7969 1308.1875,1131.7969 Q1308.9219,1131.7969 1309.5625,1131.9688 Q1310.2188,1132.125 1310.7656,1132.4844 Z " fill="#000000"/><text fill="#000000" font-family="sans-serif" font-size="14" lengthAdjust="spacing" textLength="72" x="1322" y="1142.3379">DataParser</text><line style="stroke:#181818;stroke-width:0.5;" x1="1294" x2="1396" y1="1152.6094" y2="1152.6094"/><line style="stroke:#181818;stroke-width:0.5;" x1="1294" x2="1396" y1="1160.6094" y2="1160.6094"/></g><!--class LoginHandler--><g id="elem_LoginHandler"><rect codeLine="124" fill="#F1F1F1" height="48" id="LoginHandler" rx="2.5" ry="2.5" style="stroke:#181818;stroke-width:0.5;" width="116" x="1052" y="1120.6094"/><ellipse cx="1067" cy="1136.6094" fill="#ADD1B2" rx="11" ry="11" style="stroke:#181818;stroke-width:1.0;"/><path d="M1069.7656,1132.4844 Q1069.9219,1132.2656 1070.1094,1132.1563 Q1070.2969,1132.0469 1070.5156,1132.0469 Q1070.8906,1132.0469 1071.125,1132.3125 Q1071.3594,1132.5625 1071.3594,1133.1719 L1071.3594,1134.625 Q1071.3594,1135.2344 1071.125,1135.5 Q1070.8906,1135.7656 1070.5156,1135.7656 Q1070.1719,1135.7656 1069.9688,1135.5625 Q1069.7656,1135.375 1069.6563,1134.8594 Q1069.6094,1134.5 1069.4219,1134.3125 Q1069.0938,1133.9375 1068.4844,1133.7188 Q1067.875,1133.5 1067.25,1133.5 Q1066.4844,1133.5 1065.8438,1133.8281 Q1065.2188,1134.1563 1064.7188,1134.9063 Q1064.2344,1135.6563 1064.2344,1136.6875 L1064.2344,1137.7813 Q1064.2344,1139.0156 1065.125,1139.8438 Q1066.0156,1140.6563 1067.6094,1140.6563 Q1068.5469,1140.6563 1069.2031,1140.4063 Q1069.5938,1140.25 1070.0156,1139.8125 Q1070.2813,1139.5469 1070.4219,1139.4688 Q1070.5781,1139.3906 1070.7813,1139.3906 Q1071.1094,1139.3906 1071.3594,1139.6563 Q1071.625,1139.9063 1071.625,1140.25 Q1071.625,1140.5938 1071.2813,1141 Q1070.7813,1141.5781 1069.9844,1141.9063 Q1068.9063,1142.3594 1067.6094,1142.3594 Q1066.0938,1142.3594 1064.8906,1141.7344 Q1063.9063,1141.2344 1063.2188,1140.1719 Q1062.5313,1139.0938 1062.5313,1137.8125 L1062.5313,1136.6563 Q1062.5313,1135.3281 1063.1406,1134.1875 Q1063.7656,1133.0313 1064.8594,1132.4219 Q1065.9531,1131.7969 1067.1875,1131.7969 Q1067.9219,1131.7969 1068.5625,1131.9688 Q1069.2188,1132.125 1069.7656,1132.4844 Z " fill="#000000"/><text fill="#000000" font-family="sans-serif" font-size="14" lengthAdjust="spacing" textLength="84" x="1081" y="1142.3379">LoginHandler</text><line style="stroke:#181818;stroke-width:0.5;" x1="1053" x2="1167" y1="1152.6094" y2="1152.6094"/><line style="stroke:#181818;stroke-width:0.5;" x1="1053" x2="1167" y1="1160.6094" y2="1160.6094"/></g><!--class NetworkHandler--><g id="elem_NetworkHandler"><rect codeLine="125" fill="#F1F1F1" height="48" id="NetworkHandler" rx="2.5" ry="2.5" style="stroke:#181818;stroke-width:0.5;" width="131" x="759.5" y="1120.6094"/><ellipse cx="774.5" cy="1136.6094" fill="#ADD1B2" rx="11" ry="11" style="stroke:#181818;stroke-width:1.0;"/><path d="M777.2656,1132.4844 Q777.4219,1132.2656 777.6094,1132.1563 Q777.7969,1132.0469 778.0156,1132.0469 Q778.3906,1132.0469 778.625,1132.3125 Q778.8594,1132.5625 778.8594,1133.1719 L778.8594,1134.625 Q778.8594,1135.2344 778.625,1135.5 Q778.3906,1135.7656 778.0156,1135.7656 Q777.6719,1135.7656 777.4688,1135.5625 Q777.2656,1135.375 777.1563,1134.8594 Q777.1094,1134.5 776.9219,1134.3125 Q776.5938,1133.9375 775.9844,1133.7188 Q775.375,1133.5 774.75,1133.5 Q773.9844,1133.5 773.3438,1133.8281 Q772.7188,1134.1563 772.2188,1134.9063 Q771.7344,1135.6563 771.7344,1136.6875 L771.7344,1137.7813 Q771.7344,1139.0156 772.625,1139.8438 Q773.5156,1140.6563 775.1094,1140.6563 Q776.0469,1140.6563 776.7031,1140.4063 Q777.0938,1140.25 777.5156,1139.8125 Q777.7813,1139.5469 777.9219,1139.4688 Q778.0781,1139.3906 778.2813,1139.3906 Q778.6094,1139.3906 778.8594,1139.6563 Q779.125,1139.9063 779.125,1140.25 Q779.125,1140.5938 778.7813,1141 Q778.2813,1141.5781 777.4844,1141.9063 Q776.4063,1142.3594 775.1094,1142.3594 Q773.5938,1142.3594 772.3906,1141.7344 Q771.4063,1141.2344 770.7188,1140.1719 Q770.0313,1139.0938 770.0313,1137.8125 L770.0313,1136.6563 Q770.0313,1135.3281 770.6406,1134.1875 Q771.2656,1133.0313 772.3594,1132.4219 Q773.4531,1131.7969 774.6875,1131.7969 Q775.4219,1131.7969 776.0625,1131.9688 Q776.7188,1132.125 777.2656,1132.4844 Z " fill="#000000"/><text fill="#000000" font-family="sans-serif" font-size="14" lengthAdjust="spacing" textLength="99" x="788.5" y="1142.3379">NetworkHandler</text><line style="stroke:#181818;stroke-width:0.5;" x1="760.5" x2="889.5" y1="1152.6094" y2="1152.6094"/><line style="stroke:#181818;stroke-width:0.5;" x1="760.5" x2="889.5" y1="1160.6094" y2="1160.6094"/></g><!--class StateHandler--><g id="elem_StateHandler"><rect codeLine="126" fill="#F1F1F1" height="48" id="StateHandler" rx="2.5" ry="2.5" style="stroke:#181818;stroke-width:0.5;" width="114" x="474" y="1120.6094"/><ellipse cx="489" cy="1136.6094" fill="#ADD1B2" rx="11" ry="11" style="stroke:#181818;stroke-width:1.0;"/><path d="M491.7656,1132.4844 Q491.9219,1132.2656 492.1094,1132.1563 Q492.2969,1132.0469 492.5156,1132.0469 Q492.8906,1132.0469 493.125,1132.3125 Q493.3594,1132.5625 493.3594,1133.1719 L493.3594,1134.625 Q493.3594,1135.2344 493.125,1135.5 Q492.8906,1135.7656 492.5156,1135.7656 Q492.1719,1135.7656 491.9688,1135.5625 Q491.7656,1135.375 491.6563,1134.8594 Q491.6094,1134.5 491.4219,1134.3125 Q491.0938,1133.9375 490.4844,1133.7188 Q489.875,1133.5 489.25,1133.5 Q488.4844,1133.5 487.8438,1133.8281 Q487.2188,1134.1563 486.7188,1134.9063 Q486.2344,1135.6563 486.2344,1136.6875 L486.2344,1137.7813 Q486.2344,1139.0156 487.125,1139.8438 Q488.0156,1140.6563 489.6094,1140.6563 Q490.5469,1140.6563 491.2031,1140.4063 Q491.5938,1140.25 492.0156,1139.8125 Q492.2813,1139.5469 492.4219,1139.4688 Q492.5781,1139.3906 492.7813,1139.3906 Q493.1094,1139.3906 493.3594,1139.6563 Q493.625,1139.9063 493.625,1140.25 Q493.625,1140.5938 493.2813,1141 Q492.7813,1141.5781 491.9844,1141.9063 Q490.9063,1142.3594 489.6094,1142.3594 Q488.0938,1142.3594 486.8906,1141.7344 Q485.9063,1141.2344 485.2188,1140.1719 Q484.5313,1139.0938 484.5313,1137.8125 L484.5313,1136.6563 Q484.5313,1135.3281 485.1406,1134.1875 Q485.7656,1133.0313 486.8594,1132.4219 Q487.9531,1131.7969 489.1875,1131.7969 Q489.9219,1131.7969 490.5625,1131.9688 Q491.2188,1132.125 491.7656,1132.4844 Z " fill="#000000"/><text fill="#000000" font-family="sans-serif" font-size="14" lengthAdjust="spacing" textLength="82" x="503" y="1142.3379">StateHandler</text><line style="stroke:#181818;stroke-width:0.5;" x1="475" x2="587" y1="1152.6094" y2="1152.6094"/><line style="stroke:#181818;stroke-width:0.5;" x1="475" x2="587" y1="1160.6094" y2="1160.6094"/></g><!--class TypesHandler--><g id="elem_TypesHandler"><rect codeLine="127" fill="#F1F1F1" height="48" id="TypesHandler" rx="2.5" ry="2.5" style="stroke:#181818;stroke-width:0.5;" width="120" x="303" y="1120.6094"/><ellipse cx="318" cy="1136.6094" fill="#ADD1B2" rx="11" ry="11" style="stroke:#181818;stroke-width:1.0;"/><path d="M320.7656,1132.4844 Q320.9219,1132.2656 321.1094,1132.1563 Q321.2969,1132.0469 321.5156,1132.0469 Q321.8906,1132.0469 322.125,1132.3125 Q322.3594,1132.5625 322.3594,1133.1719 L322.3594,1134.625 Q322.3594,1135.2344 322.125,1135.5 Q321.8906,1135.7656 321.5156,1135.7656 Q321.1719,1135.7656 320.9688,1135.5625 Q320.7656,1135.375 320.6563,1134.8594 Q320.6094,1134.5 320.4219,1134.3125 Q320.0938,1133.9375 319.4844,1133.7188 Q318.875,1133.5 318.25,1133.5 Q317.4844,1133.5 316.8438,1133.8281 Q316.2188,1134.1563 315.7188,1134.9063 Q315.2344,1135.6563 315.2344,1136.6875 L315.2344,1137.7813 Q315.2344,1139.0156 316.125,1139.8438 Q317.0156,1140.6563 318.6094,1140.6563 Q319.5469,1140.6563 320.2031,1140.4063 Q320.5938,1140.25 321.0156,1139.8125 Q321.2813,1139.5469 321.4219,1139.4688 Q321.5781,1139.3906 321.7813,1139.3906 Q322.1094,1139.3906 322.3594,1139.6563 Q322.625,1139.9063 322.625,1140.25 Q322.625,1140.5938 322.2813,1141 Q321.7813,1141.5781 320.9844,1141.9063 Q319.9063,1142.3594 318.6094,1142.3594 Q317.0938,1142.3594 315.8906,1141.7344 Q314.9063,1141.2344 314.2188,1140.1719 Q313.5313,1139.0938 313.5313,1137.8125 L313.5313,1136.6563 Q313.5313,1135.3281 314.1406,1134.1875 Q314.7656,1133.0313 315.8594,1132.4219 Q316.9531,1131.7969 318.1875,1131.7969 Q318.9219,1131.7969 319.5625,1131.9688 Q320.2188,1132.125 320.7656,1132.4844 Z " fill="#000000"/><text fill="#000000" font-family="sans-serif" font-size="14" lengthAdjust="spacing" textLength="88" x="332" y="1142.3379">TypesHandler</text><line style="stroke:#181818;stroke-width:0.5;" x1="304" x2="422" y1="1152.6094" y2="1152.6094"/><line style="stroke:#181818;stroke-width:0.5;" x1="304" x2="422" y1="1160.6094" y2="1160.6094"/></g><!--reverse link Messenger to TcpMessenger--><g id="link_Messenger_TcpMessenger"><path d="M1851.0256,947.0561 C1853.3756,993.1961 1855.06,1026.5494 1857.13,1067.4294 " fill="none" id="Messenger-backto-TcpMessenger" style="stroke:#181818;stroke-width:1.0;"/><polygon fill="none" points="1850.11,929.0794,1845.0334,947.3613,1857.0178,946.7509,1850.11,929.0794" style="stroke:#181818;stroke-width:1.0;"/></g><!--reverse link Messenger to NpMessenger--><g id="link_Messenger_NpMessenger"><path d="M1976.1392,937.6406 C1994.6192,958.1806 2000.61,966.6694 2016,988.6094 C2046.46,1032.0194 2071.52,1089.2494 2084.15,1120.6094 " fill="none" id="Messenger-backto-NpMessenger" style="stroke:#181818;stroke-width:1.0;"/><polygon fill="none" points="1964.1,924.2594,1971.6788,941.6537,1980.5996,933.6275,1964.1,924.2594" style="stroke:#181818;stroke-width:1.0;"/></g><!--reverse link NetworkStream to SqlNetworkStream--><g id="link_NetworkStream_SqlNetworkStream"><path d="M3187.2644,366.7985 C3186.2344,472.3585 3184.28,674.8994 3183.39,765.9494 " fill="none" id="NetworkStream-backto-SqlNetworkStream" style="stroke:#181818;stroke-width:1.0;"/><polygon fill="none" points="3187.44,348.7994,3181.2647,366.74,3193.2641,366.8571,3187.44,348.7994" style="stroke:#181818;stroke-width:1.0;"/></g><!--reverse link SslStream to SqlSslStream--><g id="link_SslStream_SqlSslStream"><path d="M2974,366.7994 C2974,472.3594 2974,674.8994 2974,765.9494 " fill="none" id="SslStream-backto-SqlSslStream" style="stroke:#181818;stroke-width:1.0;"/><polygon fill="none" points="2974,348.7994,2968,366.7994,2980,366.7994,2974,348.7994" style="stroke:#181818;stroke-width:1.0;"/></g><!--reverse link Stream to SslOverTdsStream--><g id="link_Stream_SslOverTdsStream"><path d="M2660.4001,472.4256 C2688.2801,586.5956 2718.8,711.6094 2734.13,774.3794 " fill="none" id="Stream-backto-SslOverTdsStream" style="stroke:#181818;stroke-width:1.0;"/><polygon fill="none" points="2656.13,454.9394,2654.5714,473.8489,2666.2288,471.0022,2656.13,454.9394" style="stroke:#181818;stroke-width:1.0;"/></g><!--reverse link IBufferHandler to BufferHandler--><g id="link_IBufferHandler_BufferHandler"><path d="M1582,849.6394 C1582,910.8394 1582,1059.0394 1582,1120.4194 " fill="none" id="IBufferHandler-backto-BufferHandler" style="stroke:#181818;stroke-width:1.0;stroke-dasharray:7.0,7.0;"/><polygon fill="none" points="1582,831.6394,1576,849.6394,1588,849.6394,1582,831.6394" style="stroke:#181818;stroke-width:1.0;"/></g><!--reverse link IDataParser to DataParser--><g id="link_IDataParser_DataParser"><path d="M1345,858.7294 C1345,925.8694 1345,1061.7094 1345,1120.3294 " fill="none" id="IDataParser-backto-DataParser" style="stroke:#181818;stroke-width:1.0;stroke-dasharray:7.0,7.0;"/><polygon fill="none" points="1345,840.7294,1339,858.7294,1351,858.7294,1345,840.7294" style="stroke:#181818;stroke-width:1.0;"/></g><!--reverse link ILoginHandler to LoginHandler--><g id="link_ILoginHandler_LoginHandler"><path d="M1110,858.7294 C1110,925.8694 1110,1061.7094 1110,1120.3294 " fill="none" id="ILoginHandler-backto-LoginHandler" style="stroke:#181818;stroke-width:1.0;stroke-dasharray:7.0,7.0;"/><polygon fill="none" points="1110,840.7294,1104,858.7294,1116,858.7294,1110,840.7294" style="stroke:#181818;stroke-width:1.0;"/></g><!--reverse link INetworkHandler to NetworkHandler--><g id="link_INetworkHandler_NetworkHandler"><path d="M825,867.3494 C825,938.3194 825,1064.3994 825,1120.5094 " fill="none" id="INetworkHandler-backto-NetworkHandler" style="stroke:#181818;stroke-width:1.0;stroke-dasharray:7.0,7.0;"/><polygon fill="none" points="825,849.3494,819,867.3494,831,867.3494,825,849.3494" style="stroke:#181818;stroke-width:1.0;"/></g><!--reverse link IStateHandler to StateHandler--><g id="link_IStateHandler_StateHandler"><path d="M531,867.3494 C531,938.3194 531,1064.3994 531,1120.5094 " fill="none" id="IStateHandler-backto-StateHandler" style="stroke:#181818;stroke-width:1.0;stroke-dasharray:7.0,7.0;"/><polygon fill="none" points="531,849.3494,525,867.3494,537,867.3494,531,849.3494" style="stroke:#181818;stroke-width:1.0;"/></g><!--reverse link ITypesHandler to TypesHandler--><g id="link_ITypesHandler_TypesHandler"><path d="M363,849.6394 C363,910.8394 363,1059.0394 363,1120.4194 " fill="none" id="ITypesHandler-backto-TypesHandler" style="stroke:#181818;stroke-width:1.0;stroke-dasharray:7.0,7.0;"/><polygon fill="none" points="363,831.6394,357,849.6394,369,849.6394,363,831.6394" style="stroke:#181818;stroke-width:1.0;"/></g><!--SRC=[lLPVZzeu47_dKqGyRNKwFa5LYS9oHTq5kk5w9vrEo2G3M1WxQpkqN9NlVcCd98xZPFjKNeBjt_pnp6zchAbc48qtKcH2GHebZ2WLfPGS9Rb41o6Z-9ND60Mk_nwFHkLnV5CQBfCLw4aiaZDePVv_4_8SQmaezsCKuU-tw2jXEMo9EaSlGDAfkl7auLrrrhFTYFmbgOQ0J6U_w7ShLkoNk-IvirnFF1SsGb5D1Q-MCyADpMPbjJNB6E1ShHQKKtNwH7YgJkGCjHCnw2VWHtsgTnOiLoVd7CxruYfeQc_viBzf-EVVQ9yV3Y1xWX34MEau8_o3Tn2AxZDSXBozDufykBtfW1jEN8EWKjwOMdDsCmu5pGGJU9SAkbUCHXb9pkI8jV5C4ocKEEZ9d6WoSUgXocYDHEQDootpArdm34fXQa2-WCe4Ln0rY2evbglHJjclTxWNWaKx2PcGUiqVfHIoHXJrFx9NMf94-pPzKvJh24jTYqImho3LdOGDeWdLd2hJ4bosXs0nyFGjp0iaGAzlgdhaPCy0IpOCj9XfhayOUveGaySo4GDmlCIWpja9alDCS0w9gSZE-MVAsC3n2rhV49Esm97E9UyS5XuzjabMPok2xngZsPk_tuUeWeTbbzaf-_KFwqQuK_U_7gJTmdSwoU8UJUiho6sg78Mj7IyIkM5Th8dELMyOLeDHA08rXGMt8JYZG2EFEpM5CQ3yY9SWyWWw1ed-1MfXPyegM76QgGMLIlVeFGcbLsXyoMSWDJrOFlPWbRNku1QK0KVX7dn2aXEaYo_pbSzeUW6HQ_EHw66vyfl9gyFNvMQQfXA3jP60RGru0j6EPfrDNyUNf_agNlA3m01XAj2hQjsRlvBdKQZVcARv18TWc9TgdUlruICEj81aETB2Saj-9Oo6fB3Fce2ddx2_WupfV_xrfem9auP0oJ8WghkFqxLKDiMeNWFdpTpvumxzQ0T91uhd9XwXQUPshZDOL1NLp7vwKOEwffd9e8jByVzGgoRfGefBMSblTMmxJhSY36uuKW_84gZ67b6gzz8hQxUWUoDuwxdPLbPsgTstUjB7S27PIKW8mUJzcH965M4_csuwu6CD-jN- -GtQyz5_a7R8dcVO6fx4aLRZgsIqHuF2otFHVWfjvx7p5AgtpTELOSCUjqrZtO8y46nFox9mAjoFeWzc68tz7qizU8k6eXPaqArdPBS8UYtPG5J-16rL_VRX9_LLr1tIw7WlHM9QjSr3UOE1fk19lwzCOKVCcVvWQxlQSXN-fDzcWiEGrtzc65Mmi8UGNzZxPhd4WQD3c5wxsri6ghOR8doBCX6zP0mkQ4LvP0eBEqHo9Lr-XSHQh705stG9YNe4S8LzRWJBsys3AznEK4Yq5KfNj2_6_fX__0v9heNi37fdWEGyF0YAKV4_]--></g></svg>